<svg
  id="file-tree-svg" 
  xmlns="http://www.w3.org/2000/svg"
  viewBox="0 0 100 100"
>
<path
  d="M45.2,61.8c0,1.9,0.7,3.7,2,5c1.3,1.3,3,2,4.7,2h22.1c1.8,0,3.5-0.7,4.8-2.1c1.3-1.4,2-3.3,1.9-5.2l0-4.3
  c0-1.9-0.7-3.7-2-5.1c-1.3-1.3-2.9-2-4.7-2H51.9c-1.8,0-3.5,0.7-4.7,2c-1.3,1.3-2,3.2-2,5H22.8V38.8h22.4c0,1.9,0.7,3.7,2,5
  c1.3,1.3,3,2,4.7,2h22.1c1.8,0,3.5-0.7,4.8-2.1c1.3-1.4,2-3.3,1.9-5.2l0-4.3c0-1.9-0.7-3.7-2-5.1c-1.3-1.3-2.9-2-4.7-2H51.9
  c-1.8,0-3.5,0.7-4.7,2c-1.3,1.3-2,3.2-2,5H22.8V10.5c0-1.3-1-2.3-2.3-2.3s-2.3,1-2.3,2.3v61.9c0,6.3,5.1,11.4,11.3,11.4h15.7
  c0,1.9,0.7,3.7,2,5c1.3,1.3,3,2,4.7,2h22.1c1.8,0,3.5-0.7,4.8-2.1c1.3-1.4,2-3.3,1.9-5.2l0-4.3c0-1.9-0.7-3.7-2-5.1
  c-1.3-1.3-2.9-2-4.7-2H51.9c-1.8,0-3.5,0.7-4.7,2c-1.3,1.3-2,3.2-2,5H29.5c-3.7,0-6.7-3.1-6.7-6.8V61.8H45.2z M50.5,55.4
  c0.4-0.4,0.9-0.6,1.4-0.6h22.1c0.5,0,1,0.2,1.4,0.6c0.5,0.5,0.7,1.1,0.7,1.8l0,4.3c0,0,0,0.1,0,0.1c0,0.7-0.2,1.4-0.7,1.9
  c-0.4,0.4-0.9,0.7-1.5,0.7H51.9c-0.5,0-1.1-0.2-1.4-0.6c-0.5-0.5-0.7-1.1-0.7-1.9l0-4.4C49.8,56.5,50,55.9,50.5,55.4z M50.5,32.4
  c0.4-0.4,0.9-0.6,1.4-0.6h22.1c0.5,0,1,0.2,1.4,0.6c0.5,0.5,0.7,1.1,0.7,1.8l0,4.4c0,0,0,0.1,0,0.1c0,0.7-0.2,1.4-0.7,1.9
  c-0.4,0.4-0.9,0.7-1.5,0.7H51.9c-0.5,0-1.1-0.2-1.4-0.6c-0.5-0.5-0.7-1.1-0.7-1.9l0-4.4C49.8,33.5,50,32.9,50.5,32.4z M50.5,77.4
  c0.4-0.4,0.9-0.6,1.4-0.6h22.1c0.5,0,1,0.2,1.4,0.6c0.5,0.5,0.7,1.1,0.7,1.8l0,4.3c0,0,0,0.1,0,0.1c0,0.7-0.2,1.4-0.7,1.9
  c-0.4,0.4-0.9,0.7-1.5,0.7H51.9c-0.5,0-1.1-0.2-1.4-0.6c-0.5-0.5-0.7-1.1-0.7-1.9l0-4.4C49.8,78.5,50,77.9,50.5,77.4z"/>
</svg>
