<svg xmlns="http://www.w3.org/2000/svg" xmlns:xlink="http://www.w3.org/1999/xlink" viewBox="0 0 300 300"><style>.p_B{fill:#f9a6a6}.p_C{fill:#4fecdd}.p_D{fill:#01bfa4}.p_E{fill:#f8faf9}.p_F{fill:#1f605d}</style><path fill="rgba(0,0,0,0)" d="M0 0h300v300H0z"/><path d="M241.5 29.7c1 .6 2.7 2 3.9 2.1 1 0 3.2-1.8 4.2-2.3l11.4-6.6c1.4-.8 3.6-2.7 5.3-2.6-.7-1.2-3.2-2.8-4.6-2.5-1.7.4-3.5 2-5 2.8l-10 5.7c-1.5 1-4.3 1.9-5.2 3.4z" class="p_C"/><path d="M241.3 29.7c-.2 2-.1 4-.1 6 0 .7-.2 1.8.2 2.4.5 1 2.8 1.9 3.8 2.3-1.5 2.2-3.8 4-5.6 6.1-1.3 1.5.3 1.9 1.6 1.5v5.1c0 .7-.1 1.5.3 2 .9 1 3.1 2.3 4.4 2 1.7-.4 3.7-2 5.2-3l9.8-5.6c1.4-.8 4-1.7 5-3.1.7-.9.3-2.8.3-3.8V22.9c0-.5.3-2.5-.3-2.7-.6-.2-1.6.7-2 1l-5.6 3.2-9.3 5.3c-.8.5-2.7 2-3.6 2-1.4 0-2.8-1.6-4-2z" class="p_D"/><path d="M266.3 20.4v24.5h.1V27.7c0-2 .6-5.4-.1-7.3m-105.8 4.7v.1h.9l-.9-.1m-.8.1.2.2z" class="p_C"/><path d="m27 103 5 2.7c1.6-2.9 5.4-4.2 8.2-5.8l20.7-12 74.5-43 22.9-13.2c2.4-1.4 6-4.7 8.6-3-1-2.3-4.9-4.2-7.3-3.3-3 1.1-5.8 3.3-8.5 4.9l-17.7 10.2-76.4 44L35.6 97c-2.9 1.7-7 3.1-8.6 6.1z" class="p_D"/><path d="m162 25.2.1.2-.1-.2m-2.6.2.2.1-.2-.1m3.5.1.2.1-.2-.1m-4 .1.1.2-.1-.2m4.3 0 .2.2-.2-.2m.3.2.1.1-.1-.1m.3.1.1.2-.1-.2m-5.7.2.2.1-.2-.1m6 0 .2.1-.2-.1m-6.3.1.1.2-.1-.2m7 .3.2.2-.1-.2m-7.8.2.1.1-.1-.1m104 0v.1h.5l-.4-.1m-104.4.1.1.2-.1-.2m8.5 0 .1.2-.1-.2m95.3 0 .1.2z" class="p_C"/><path d="m253.2 43.4-1.5-1.4c-1.3-1-3.3-.3-3 1.5.3 1.4 3.5 4.5 5 4.6 1.9.2 2.5-2.8 3-4.2l4.5-10.6c.6-1.4 1.9-3.3 1.8-4.8 0-1.4-1.8-2.2-2.8-1.3-1.2 1-1.6 3.4-2.2 4.7l-2 4.5-2.8 7z" class="p_E"/><path d="m261.9 26.9.2.1-.2-.1m-1.6.1.1.1-.1-.1m-94.5.1.1.2-.1-.2m-9.8.2.1.1-.1-.1m-.3.1.2.2-.2-.2m104.1 0 .1.2-.1-.2m-.2.3.2.2-.2-.2M155 28l.2.1z" class="p_C"/><path d="m32 105.8-5-2.7c-1.4 2.4-.9 5.5-.9 8.2v94.3c0 1.9-.5 4.8.5 6.4 1.3 2.2 4.7 1.9 6.8 1.3-.6.7-1.3 1.4-1.7 2.3a6.3 6.3 0 0 0 1.3 7.6c1.2 1.2 2.9 2 4.4 2.8l7.6 4.4 45.6 26.3 13.2 7.6c2 1.2 4.2 2.9 6.6 3.1 3.6.4 6.8-2.1 9.7-3.9l18-10.4 71.9-41.5c0 5.7 4 11.3 6.8 16 .2.4.5 1 1 1.2 1 .4 4.2-.2 4.8-1.3.5-1-.6-3.6-.8-4.6l-2.4-11.7c-.3-1-1.3-3.4-.8-4.3.3-.7 1.7-1.2 2.4-1.5.1 4.2 3 8.2 5 11.8 1.2 2.2 2.3 4.5 3.8 6.6.7 1 4.4.2 4.8-1 .4-1-.7-3.7-1-4.9-1.2-4-2.2-8.1-3.3-12.3-.2-1-1.6-3.8-1-4.9.5-1.1 3.4-2.2 4.6-2.8l7.7-4.5c1.5-.9 3.2-1.6 4.3-2.9 2.4-2.8 2.4-7-.6-9.3.1.6.5 1.2.2 1.8-.4 1-1.5 1.5-2.4 2l-5.6 3.3-7.1 4c-1.1.7-2.4 1.7-3.6 2.1-.8.3-1.3-.8-2.1-.5-3 1-5.9 3.4-8.6 4.9l-6.7 3.9c-.8.4-1.9 1.4-2.9 1.4s-2.1-1-3-1.6l-7.1-4c-.8-.5-2.9-1.3-2.7-2.4.2-1.2 3.3-2.5 4.3-2.9v-.1l-3.1-2.4-5.8-2.6-3-1c0 2 0 4 .7 6.1 2.8 7.8 13 9.5 19.4 13.2-2.5 1-4.9 2.8-7.3 4.2l-16 9.2-45.4 26.2-17.4 10c-2.6 1.6-5.8 4.2-9 4-2.4 0-4.5-1.6-6.6-2.8L93.6 251l-42.7-24.7-13.5-7.7c-1.3-.8-4.1-1.8-4.4-3.4-.2-1.5 1.5-2.3 2.5-2.9L45 207c0 1.8-.2 3.3 1.1 4.7-.8.4-2.9 1.2-3 2.3-.2.8.7 1.2 1.2 1.5 1.5.8 3 2 4.7 2 2.7-.2 6-3 8.2-4.3L75 202.8l5.9-3.4c.6-.4 1.9-.8 2.3-1.5.5-.6.2-2 .2-2.8v-6.8c-.9.2-1.6.8-2.4 1.2-.8.4-1.8 1.3-2.7 1.5-1.3.2-.6-1.4-.1-1.8 1.3-1.3 4-1.6 5-3.1.5-.7.2-2 .2-2.8-1.4.5-2.8 1.5-4 2.2-.4.2-1.2.8-1.6.5-.9-.5.3-1.7.8-2 1.3-1 3.8-1.6 4.6-2.9.8-1 .2-4 .2-5.3-1.9.6-3.7 2-5.4 3l-3.3 2c-1.3.6-3 2.2-4.5 2.4-1.5.2 0-1.8.4-2.2 2.8-1.8 5.9-3.4 8.7-5 1.2-.7 3-1.3 3.9-2.3.6-.7.2-2.8.2-3.7-1.8.9-3.5 2-5.3 3l-3.3 1.9c-1.3.7-3 2.3-4.6 2.6-1.5.2-.2-1.8.3-2 2.8-2 6-3.5 8.8-5.2 1.2-.7 3-1.3 3.9-2.4.6-.7.2-2.7.2-3.6-3.6 1.6-7 4-10.4 5.9-.5.3-3 2.3-3.5 1.2-.5-1.3 2-2.4 3-2.9l7.4-4.3c1-.6 2.5-1.1 3.3-2 .4-.6.2-1.9.2-2.6v-6.9c-.6.2-1 .5-1.5.8-1 .6-3 .7-1.6-1 .7-.8 2.5-1.1 3-2.1.6-1.3.1-4 .1-5.5-2.6.8-5.2 2.8-7.5 4.2-.5.3-2 1.6-2.6.8-.8-1 1.2-2 1.8-2.4l5.7-3.3c.7-.4 2-.8 2.4-1.5.8-1 .1-3.6.3-4.8-2.6 1-5.1 2.9-7.6 4.3-.5.3-2.2 1.7-2.7.7s1.4-2 2.1-2.4l5.4-3.1c.8-.5 2-1 2.6-1.6.8-.9.2-3.4.2-4.6-1.3.3-2.4 1.3-3.6 2l-6.9 4c-.5.3-3 2.3-3.5 1.2-.3-1 1.1-1.8 1.7-2.1l7-4.1c1.5-1 3.8-1.8 5.1-3.1 1.1-1.2 1.2-2.7 2.6-3.7 2-1.5 4.5-2.6 6.6-3.9l11.9-6.8 58.2-33.5 16.8-9.7 4.4-2.5c.5-.3 1.5-.7 1.9-1.3.3-.4.2-1.2.2-1.7V45.4c-3.7 1.4-7.2 4-10.5 6l-21.8 12.5L83 104.6l-24 13.8-7.2 4.2c-1 .5-2.3 1.6-3.3 1.7-1.2.1-2.4-1.3-3.5-1.6v69.7c0 1 .3 2.4-.2 3.2-1 1.4-3.8 2.3-5.3 3.2-1 .6-3.2 2.4-4.5 2.2-1.7-.3-1.1-3.9-1.1-5.1v-80.7c0-2-.4-4.6.7-6.5 1.6-2.5 5.8-4 8.3-5.4l20-11.5 71.4-41.3 21-12 5-3c.6-.4 1.5-1 2.1-.6.9.5.8 1.5.8 2.3v5.7c1-.3 3.3-1.3 3.9-2.3.3-.6.2-1.6.2-2.2V33c0-1.5.6-4.8-1.7-5-1-.2-2 .5-2.7 1l-5.1 2.9-20.1 11.6-76 44-22 12.5c-2.4 1.5-6.7 3-7.7 5.8z" class="p_F"/><path d="m259.2 28.8.2.1-.2-.1m3.8 0 .1.1-.2-.1m-109.7.1.1.2-.2-.2m14 .2h.1m-14.3 0 .1.1-.1-.1m109.9.1.2.2-.2-.2m-110.7.4.2.1-.2-.1m106.8 0 .2.1-.2-.1m-107.1.1.2.2zM167.3 29.9v7.6c0 .9.2 2.4-.2 3.1-.4.7-1.6 1.1-2.2 1.5l-5.8 3.2-19.9 11.5-68.6 39.5-18 10.4c-2.2 1.3-5.7 2.5-6.8 4.9l3 1.6 2.2-1.7 5.7-3.3L81.3 94l74-42.5L175.2 40l5.9-3.4 3.4-1.6v-.2c-1-.5-2.3-1.6-3.4-1.6-1.5 0-3 1.3-4.2 2-3.2 1.8-6.5 3.4-9.5 5.4v-7.3l-.1-3.4m91.5 0 .1.1-.1-.1m-107.4.1.1.1-.1-.1m89.8.1.1.1v-.1m21.2-.1.1.1-.1-.1m-111.5.1.2.2-.2-.2m111.3.2.2.1-.2-.1m-112 .3.1.1-.1-.1m108.1 0 .2.1-.2-.1m-108.4.1.1.2-.1-.2m112 .4.2.1-.2-.1m-112.8.1.2.2-.2-.2m-.3.2.2.1-.2-.1m109.2 0 .2.1-.2-.1m-.1.2.1.2-.1-.2m-109.8.2.2.1-.2-.1m-.3.1.2.2-.2-.2m113.7.2.1.1-.1-.1m-114.2.1.2.2-.2-.2m-67 .2c-.6 2.4 1.3 2.7 3 1.8l-3-1.8m66.7 0 .2.1-.2-.1m110.6 0 .1.1-.1-.1m-.2.3.2.1-.2-.1m-111.1.1.2.2-.2-.2m114.9 0 .1.2-.1-.2m-115.2.2.1.1-.1-.1m115 .1.2.2-.2-.2m-188.5.3v3.8l-2.1 3.1c.8.5 2 1.5 2.8 1.6.7 0 1-.8 1.4-1.3 1.5-2 .7-3.3 1-5.5l-3.1-1.7m72.8 0 .1.2-.1-.2m111.9 0 .1.2-.1-.2m-112.2.2.1.1-.1-.1m115.8.3.1.1-.1-.1m-116.6.1.1.2-.1-.2m112.7.2.1.1-.1-.1m-113.4.3.1.1-.1-.1m113.2 0 .1.1-.1-.1m-113.5.1.1.2z" class="p_C"/><path d="M162 34.7z" class="p_D"/><path d="M161.6 34.9c-1.2.3-2.2 1.1-3.2 1.7l-6.3 3.6-21.2 12.2-64.5 37.3-23.3 13.5c-2.6 1.5-7.2 3-8.6 5.7-.9 1.8-.4 4.4-.4 6.5v80.8c0 1.2-.7 5.2 1.5 4.7 2.3-.5 4.8-2.7 6.8-3.8.7-.4 2-.8 2.4-1.6.5-1.2 0-3.8 0-5.1v-71.9c0-2-.3-4.4.6-6.3 1.5-2.9 5.2-4.3 7.9-5.8l18.3-10.5 69.4-40 15-8.6c2.1-1.3 5.1-2.4 6.9-4 .5-.5.3-1.4.3-2 0-1.7.2-3.5 0-5.2-.2-.8-.7-1.4-1.6-1.2z" class="p_E"/><path d="m161.1 35 .1.1-.1-.2m1.5 0 .1.2z" class="p_C"/><path d="M45.6 111.6c-1 2.5-.6 5.3-.6 8 0 .8-.3 2.1 0 2.9.4.7 2.7 2 3.4 1.9 1 0 2.1-1 2.9-1.5l6.3-3.6 23-13.3 79.2-45.6 18-10.4 5.2-3c.8-.4 2-.9 2.5-1.5s.3-1.8.3-2.5v-5.5c0-.8 0-1.8-.8-2.3-.9-.6-2 0-2.7.5l-5.9 3.4-25.2 14.5-76.3 44-19.5 11.2-4.8 2.8c-.5.4-1.1 1.4-1.8 1.5-.8.3-2.4-1.3-3.3-1.5z" class="p_D"/><path d="m184.7 35 .1.1-.2-.2m75.8 0 .2.2-.2-.2m-117.9.2.1.1-.1-.1m18.3 0 .1.1-.1-.1m2 0 .1.1-.2-.1m-20.5.1.2.2zM160 35.6l.2.1-.1-.1m96.3 0 .1.1-.1-.1m-115 .1.2.2-.1-.2m18.3 0 .1.2zM260 36l.1.1-.1-.1m-119.3.1.2.2-.2-.2m18.3 0 .2.2-.2-.2m-18.6.2.2.1-.2-.1m18.3 0 .2.1-.2-.1m97.4 0 .1.1zM139.7 36.8l.1.1-.2-.1m18.4 0 .1.1-.1-.1m101.7 0 .1.1-.1-.1m-120.3.1.1.2z" class="p_C"/><path d="m157.7 36.9.1.2-.2-.2m-.2.2.1.1z" class="p_D"/><path d="m255.8 37 .1.2-.2-.1m-98.5.1.2.2-.2-.2m-18.6.2.1.1-.1-.1m18.3 0 .1.1-.1-.1m98.7 0 .1.1-.1-.1m-117.3.1.1.1zM156.2 37.8l.1.1-.2-.1m103.1 0 .2.1-.2-.1m-121.7.1.2.2-.2-.2m18.4 0 .1.2-.1-.2m-18.7.2.2.1zM241 38.1c-1.3 1.9-3 3.5-4.5 5.3-.4.4-1.5 1.3-1.3 2 .2 1 2.9 2 3.7 2.5.3-1 1.1-1.7 1.8-2.5 1.4-1.5 3.7-3.2 4.5-5L241 38m14.3 0 .1.1-.1-.1m-118.5.3.1.2-.1-.2m18.3 0 .1.2-.1-.2m-18.6.2.1.1zM258.8 38.9l.1.1-.1-.1m-123 .1.1.1-.2-.1m18.4 0 .1.1-.1-.1m-18.7.1.2.2zM153.3 39.4l.1.2-.1-.2m-18.6.2.2.1-.2-.1m18.3 0 .1.1-.1-.1m105.4 0 .2.1-.2-.1m-175.8.1c.8 5.6-2 11.7-7.7 13.4 1.2 2.4 4 1.9 6 .5 2.9-2.1 5-5.9 5-9.5 0-2.2-.7-4.3-3.3-4.4m51.8 0 .2.2zM254.6 39.9l.1.2-.1-.2m-102.3.2.1.1-.2-.1m-18.6.1.2.2-.2-.2m18.3 0 .2.2-.2-.2m29.2 0 .1.2z" class="p_C"/><path d="M181.2 40.3c-1.2.4-1.7 2.2-1.6 3.3 0 .8.4 1.6 1.3 1.3 1.2-.5 1.6-2.2 1.5-3.3 0-.7-.4-1.5-1.2-1.3z" class="p_E"/><path d="m258.1 40.4.2.1-.2-.1m-77.5.1.2.1-.2-.1m1.5 0 .2.1-.2-.1m-115.2.1c-.5 1.3-2 3.3-1.9 4.7.1 1 1.7 1.2 2.3 2 .5.9-.4 2.8-.7 3.7l3 1.6c.5-.8 1.4-3 .6-4-.6-.5-2-.6-2.1-1.5-.3-1.3 1.5-3.6 2-4.8l-3.2-1.7m66 0 .2.2-.2-.2m18.3 0 .2.2z" class="p_C"/><path d="m150.6 41 .1.1-.1-.2m16 0 .2.2z" class="p_D"/><use xlink:href="#p_B" class="p_C"/><path d="M182.4 41.4v.7h.2l-.2-.7m67.5 0 .2.2-.2-.2m.8 0 .1.2-.2-.2m7.1 0 .2.2z" class="p_C"/><path d="M165.1 41.9h.1z" class="p_D"/><path d="m252 42.3.1.1-.1-.1m-206.1.3c.2.8.4 2.3 1 2.7s2.2-.3 2.9-.6v-.3c-1-.6-2.7-2-3.9-1.8m83.9-.1.1.1-.1-.1m18.3 0 .1.1z" class="p_C"/><path d="m147.8 42.6.1.1-.2-.1m16.1 0 .1.1z" class="p_D"/><path d="m182.3 42.8.1.1-.2-.1m71.2 0 .1.1-.1-.1m-124.4.1.2.2-.2-.2m18.3 0 .2.2z" class="p_C"/><path d="M176.1 43.3c-1.4.2-1.8 2.2-1.8 3.3 0 .7.3 1.5 1 1.4 1.4-.1 1.9-2.2 1.8-3.3 0-.6-.2-1.5-1-1.4z" class="p_E"/><path d="m182.1 43.2.1.2-.1-.2m74.8 0 .2.2-.2-.2m-110.4.2.2.1-.2-.1m-18.6.1.2.1-.2-.1m18.3 0 .2.1-.2-.1m110.6 0 .1.1-.1-.1m-220 .1c0 3.3.4 5.9-2.6 8.1v.4c1 .4 2.6 2 3.6 1.8.7-.2 1.1-1 1.5-1.5 1.3-1.8 1.4-2.9 1.2-5 0-.5.1-1.3-.2-1.7-.5-.9-2.6-1.7-3.6-2m91 0 .1.1z" class="p_C"/><path d="m146 43.6.1.2-.2-.2m-.3.2.2.1z" class="p_D"/><path d="m145.5 44 .1.1-.1-.2m31.5 0 .1.2-.1-.2m-50.1.2.1.1-.1-.1m18.3 0 .2.1-.2-.1m36.4 0 .2.1-.2-.1m-55 .1.1.2zM174.8 44.3l.1.1-.2-.1m74.3 0 .1.1-.1-.1m7.5 0 .1.1-.1-.1m-7.4.1.2.2-.2-.2m-123 .2.2.1-.2-.1m18.3 0 .2.1-.2-.1m30.2 0 .1.1-.1-.1m5.1 0 .2.1-.2-.1m69.6 0 .1.1-.1-.1m-123.4.1.1.2-.1-.2m18.2 0 .2.2-.2-.2m105.3 0 .2.2zM256 45.3l.2.1-.1-.1m9.8 0 .2.1zM255.8 46l.1.2-.2-.1m9.2 0 .2.1-.2-.1m-123.3.1.1.2-.1-.2m32.5 0v.6h.2l-.2-.6m2.7 0 .2.2-.2-.2m-53.8.2.1.1-.1-.1m18.3 0 .1.1-.1-.1m29 0 .2.1z" class="p_C"/><path d="M170.6 46.5c-1.2.4-1.8 2.2-1.7 3.3.1.7.5 1.5 1.3 1.2 1.2-.4 1.8-2.2 1.7-3.3 0-.7-.5-1.5-1.4-1.2z" class="p_E"/><path d="m171.8 47.1.1.1-.2-.1m4.7 0 .1.1-.1-.1m78.9 0 .1.1-.1-.1m7.8 0 .1.1-.1-.1m-93.6.1.1.2-.1-.1m-48.3.1.1.2-.1-.2m18.3 0 .1.2-.1-.2m115.6 0 .2.2-.2-.2m-134.2.2.2.1zM169 48.3l.2.1-.1-.1m91.9 0 .1.1-.1-.1m-123.3.1.2.2-.2-.2m-18.6.2.1.1-.1-.1m18.3 0 .2.1-.2-.1m34.4 0 .1.1zM84.3 127.2l3.3 1.8c2.4-3.1 6.9-4.7 10.2-6.7l24.3-14 72.5-41.7 19.8-11.4c2.5-1.4 5.7-4.2 8.7-4.6-.9-.8-2.4-1.8-3.5-1.8-2-.1-5 2.4-6.7 3.4l-22.5 13-77.6 44.6-20.5 11.9c-2.5 1.4-6.7 2.8-8 5.5m176-78.4.1.1-.1-.1m-91.4.2.1.1V49m-50.6 0 .1.2-.1-.1m18.2 0 .2.1-.2-.1m-18.5.1.1.2zM168.9 50l.2.1-.2-.2m89.3 0 .1.2-.2-.2m-123.3.2.2.1-.2-.1m36.3 0 .2.1-.2-.1m-54.9.1.2.2-.2-.2m18.3 0 .2.2-.2-.2m-18.6.2.2.1z" class="p_C"/><path d="m87.6 129-3.5-1.8-.8 4c.4.8.6 3.5.1 4.4-.5.7-2 1.2-2.7 1.7l-6.6 3.8c-.5.4-1.8 2.3-.3 2.2 1 0 2.3-1.1 3.2-1.6l2.5-1.5 4-2.3-.1.4c1 .3 2.5 1.8 3.6 1.7.9-.1 1.8-1 2.6-1.4l5.5-3.2 19.5-11.2 82.8-47.7 19.2-11 5.3-3c.6-.4 1.8-.8 2.2-1.5.4-.6.2-1.7.2-2.4 0-2 .6-5.3-.2-7.1-.3-1-1.4-1-2.2-.7-2 1-3.9 2.2-5.7 3.3l-24.3 14-76.4 44-20 11.4c-2.4 1.5-6.5 2.9-7.9 5.5z" class="p_D"/><path d="m169.5 51 .1.1-.1-.1m.8 0 .1.1-.2-.1m86.2 0 .1.1-.1-.1m-207.6.1c1.6 6-2.5 15.3-9.3 16.3 1.1 3 4.9 2.2 7 .8 3.5-2.4 6.3-7 6.5-11.3 0-3-1-5.6-4.2-5.8m65.7.2.1.1-.1-.1m18.3 0 .1.1-.1-.1m-18.7.1.2.2zM255.3 51.6l.1.1-.1-.1m-141.9.3.2.2-.2-.2m18.3 0 .2.2-.2-.2m92.6 0v9.2h.1v-6.2l-.1-3m-111.2.2.2.1zM254.3 52.2l.1.2-.2-.2M29.4 64.8l3.8 2.1c.6-1 1.6-3.9.6-4.9-.6-.7-2.4-.7-2.5-1.9-.3-1.7 2-4 2.3-5.8-1-.4-2.4-1.8-3.4-1.8-.6 0-.8.8-1 1.2-.4 1.1-1.8 3.1-1.7 4.3.2 1.2 2 1.4 2.7 2.2.9 1-.3 3.7-.8 4.6m101.5-12.4.2.1-.2-.1m-18.5.1.1.1-.1-.1m18.2 0 .2.1-.2-.1m123.2 0 .1.1-.1-.1m-141.8.1.2.2zM111.6 53l.1.1-.1-.2m18.3 0 .1.2-.1-.2m-18.6.2.1.1-.1-.1m18.3 0 .1.1-.1-.1m123.2 0 .1.1z" class="p_C"/><path d="M241.2 84.4v5c0 .7-.1 1.5.3 2 .8 1 3 2.3 4.2 2 1.6-.2 3.3-1.6 4.7-2.4l10.3-6c1.5-.9 4.3-1.9 5.3-3.3.4-.5.3-1.4.3-2V61.8c0-1.5.4-4-.2-5.5-.4-1-2.5-2-3.5-2.2-1.5-.5-4 1.7-5.3 2.4l-11 6.3c-1.4.9-3.5 1.6-4.6 2.8-.6.7-.5 1.7-.5 2.5 0 1.8.5 4.4 0 6-.7 2-3.3 4-4.6 5.4-.4.6-1.6 1.5-1.3 2.3.3 1 2.4 1.6 3.2 2.1.9.5 1.7.4 2.7.4z" class="p_F"/><path d="M63.4 54.1c0 2.9 1 4.1 3.5 5.3 0-2.9-.9-4-3.5-5.3m46.1 0 .1.2-.1-.2m18.3 0 .1.2-.1-.2m123.2 0 .1.2z" class="p_C"/><use xlink:href="#p_C" class="p_B"/><use xlink:href="#p_D" class="p_C"/><path d="M219.8 56c-1.3.2-1.8 2.1-1.7 3.2 0 .7.4 1.5 1.2 1.3 1.2-.3 1.7-2.1 1.6-3.2 0-.7-.2-1.6-1.2-1.4z" class="p_E"/><path d="m219.3 56 .1.1-.1-.2m28.5 0 .1.2zM105.6 56.4l.1.2-.1-.2m18.3 0 .1.2-.1-.2m95 0 .1.2-.2-.2m2 0 .1.2-.1-.2m22.8 0 .1.2-.1-.2m3.4 0 .2.2z" class="p_C"/><path d="m257 56.7.1.2-.2-.2m9.4 0v24.4h.1v-17c0-2.1.6-5.5-.1-7.4z" class="p_B"/><path d="m122.5 57.1.2.2-.2-.2m54.6.2c-1.7.4-3.5 2-5 2.8l-13.4 7.7L121.9 89l-13.8 8c-1 .5-2.3 1-3 2-.2.4-.4 1.2.1 1.4.5.2 1-.2 1.4-.4l3.4-2 13.5-7.8L163.8 67l12.8-7.3c.5-.3 1.1-.7 1.3-1.3.3-.7 0-1.3-.8-1.2z" class="p_D"/><path d="m103.5 57.6.1.1-.1-.1m18.3 0 .1.1-.1-.1m-50.9 6.6c-.1-1.6 1.5-3 1.3-4.6-.2-2-2-2-3.1-.8-.5.5-.7 1.3-.9 2-.2.4-.5 1-.2 1.5.5.9 2.1 1.5 3 1.9z" class="p_C"/><path d="m255.2 57.8.1.1-.2-.1m-.2.1.1.2z" class="p_B"/><path d="m102.8 58 .1.2-.2-.1m18.4 0 .1.1-.1-.1m97 0 .2.1z" class="p_C"/><path d="m120.8 58.2.1.2-.2-.2m-.3.2.2.1z" class="p_D"/><path d="M214.7 59c-1.4 0-2 2.1-2 3.2.1.7.5 1.5 1.2 1.4 1.3-.2 1.8-2.2 1.8-3.3 0-.6-.3-1.5-1-1.4z" class="p_E"/><path d="M218 58.8v.5h.1l-.2-.5m2.7 0 .2.1zM119.3 59.1l.1.1-.2-.1m94.7 0 .1.1-.1-.1m6.6 0 .1.1zM213.6 59.4l.1.2-.1-.2m6.8 0 .1.2-.2-.2m-143.2.7c.5 1.2 2.1 1.8 3.1 2.3-.1-.7-.3-2.5-1.2-2.7-.5-.2-1.4.3-1.9.4z" class="p_C"/><use xlink:href="#p_E" class="p_C"/><path d="m115.8 61 .1.2-.1-.1m-.3.1.1.2z" class="p_D"/><path d="m97 61.4.2.1-.1-.1m18.3 0 .1.1-.1-.1m108.1 0 .2.1zM96.8 61.5l.1.1-.2-.1m18.4 0 .1.1-.1-.1m97.6 0v.4h.2zM96 62l.1.1-.1-.2m18.3 0 .1.2-.1-.2m94.6 0 .2.2z" class="p_C"/><path d="M209.1 62c-1.1.5-1.7 2.2-1.6 3.2 0 .8.4 1.7 1.3 1.4 1.1-.3 1.7-2.2 1.6-3.3 0-.7-.5-1.5-1.3-1.2z" class="p_E"/><path d="m208.3 62.4.2.2-.2-.2m1.8 0 .2.2-.2-.2m2.6.1.1.1v-.1m2.3-.1.1.2-.1-.2m6.6 0 .2.2zM95 62.6l.1.1-.2-.1m18.3 0 .2.1-.2-.1m108.2 0 .2.1-.2-.1m-126.8.1.2.2z" class="p_C"/><use xlink:href="#p_E" x="-6" y="3.4" class="p_C"/><path d="m207.8 63.4.1.2-.2-.2m5.4 0 .2.2-.2-.2m1.1 0 .2.2zM93.1 63.6l.2.1-.2-.1m18.3 0 .2.1-.2-.1m102 0 .2.1-.2-.1m.4 0 .1.1-.2-.1m5.9 0 .2.1z" class="p_C"/><use xlink:href="#p_B" x="-39" y="22.5" class="p_C"/><path d="m210.3 64 .1.2-.1-.1m8.6 0 .1.1zM207.5 64.4v.2z" class="p_C"/><path d="m259.5 68.3-1.6-.7c.1-.9 1.3-3-.2-3.1l-.8 3.3-1.6.6-.4-2-.8.5.3 2.1-1.8 2.9h-.1l-.4-1.1c-.1-.4-1-1.9-1-.6 0 1.2 1 2.2.7 3.4-.2.7-.3 1.6-.8 2-.8 1-1.6.5-1.8 2-.1.4-.9 3.6 0 3.4.4 0 .5-1 .5-1.4.2-1 .2-2.3 1.3-2.8 0 1.2.3 3.2 0 4.3-.2 1-1.4 1.4-1.1 2.5 0 .4 1 3 1.7 2.5.6-.5-.6-2-.7-2.5-.1-.6.5-1 .8-1.4 1.9 4.4 6.6-.4 7.8-2.7.4-1 .5-2.2 1.8-2l-.6 1.6c-.1.3-1.2 2.4-.3 2.4.7 0 1-1.5 1.2-2 .5-1.7 1.2-2.8-1-3 .4-1.7-.2-4.4 1.3-5.6a10.2 10.2 0 0 0 .1 1.2l.1.8c0 .4.6 1.5.9.6.2-.6-.1-3.5-.7-3.7-.5-.2-1.2.5-1.6.7-.3-1.7-.1-2.4.4-4 0-.5.5-1.5.2-1.9-.3-.3-.7.3-.8.5l-1 3.2m-149.7-3.8.1.1z" class="p_D"/><path d="m210.2 64.6.1.2-.2-.2m7.7 0 .1.2zM91 64.8l.2.1-.1-.1m18.3 0 .1.1-.1-.1m108.1 0 .2.1-.2-.1m-126.7.1.1.2zM108.6 65.3l.1.1-.1-.2m108.2 0 .1.2zM89.3 65.9l.1.1-.2-.1m18.4 0 .1.1-.1-.1m108.1 0 .2.1-.2-.1M89 66l.1.1-.1-.1m18.3 0 .1.1zM88.2 66.4l.2.2-.2-.2m18.3 0 .1.2-.1-.2m108.2 0 .1.2-.2-.2M88 66.6l.2.1zM105.8 66.9l.1.1-.2-.1m108.2 0 .2.1-.2-.1M87.1 67l.2.2-.1-.2m18.3 0 .1.2-.1-.2m108.1 0 .1.2-.1-.2m-126.7.2.1.1z" class="p_C"/><use xlink:href="#p_B" x="-46.5" y="26.9" class="p_C"/><path d="m211.8 68.1.1.2-.1-.2M85 68.3l.2.1-.1-.2m18.3 0 .1.2z" class="p_C"/><path d="M253.2 72.9c2.6 1 5.2-1.5 5.9-3.9-2.5-1.4-5.4 1.5-5.9 3.9z" class="p_F"/><path d="M25.6 68.7c0 1.1.2 3.2.8 4.2.6.9 2.6 1.8 3.6 2.1-.2-1.2-.1-3.1-.8-4.2-.5-.9-2.6-1.8-3.6-2.1m58.7 0 .1.2-.1-.2m18.3 0 .1.2zM210.8 68.7l.1.2-.2-.2M84 68.9l.1.1z" class="p_C"/><path d="M177 69v.1z" class="p_B"/><path d="M176.6 69.3c-1.8.5-3.7 2-5.3 2.9l-10 5.6c-1 .6-2.7 1.2-3.4 2.2-.3.3-.6 1.3 0 1.5.6.1 1.2-.4 1.5-.6l3.3-1.9 9.5-5.3c1.4-.8 3.2-1.5 4.5-2.5.6-.5 1.2-2.4-.2-2z" class="p_E"/><path d="m175.7 69.6.1.2-.2-.2m1.9.1v.1z" class="p_B"/><use xlink:href="#p_F" class="p_C"/><path d="m209 69.8.1.1-.2-.2M82.2 70l.2.1-.2-.1m18.3 0 .1.1z" class="p_C"/><path d="m259.5 70-3 3.5-.1 3.1-.2 5.6c2.6-1.8 3.7-5.5 4-8.6 0-1 .1-2.6-.7-3.5z" class="p_F"/><use xlink:href="#p_G" class="p_C"/><path d="m207.9 70.4.2.1-.2-.1m-126.8.1.2.1-.1-.1m18.3 0 .1.1z" class="p_C"/><use xlink:href="#p_E" x="-19.5" y="11.3" class="p_C"/><path d="m206.8 71 .2.1-.2-.2m-126.7.2.1.1z" class="p_C"/><use xlink:href="#p_H" class="p_B"/><use xlink:href="#p_B" x="-52.5" y="30.3" class="p_C"/><use xlink:href="#p_I" class="p_B"/><use xlink:href="#p_B" x="-53.2" y="30.8" class="p_C"/><use xlink:href="#p_I" x="-.8" y=".4" class="p_B"/><path d="m205 72 .2.1-.1-.1m-126.8.1.1.2-.1-.2m18.3 0 .1.2z" class="p_C"/><use xlink:href="#p_J" class="p_B"/><use xlink:href="#p_H" x="-1.9" y="1.1" class="p_B"/><use xlink:href="#p_F" x="-4.9" y="2.9" class="p_C"/><use xlink:href="#p_I" x="-1.8" y="1.1" class="p_B"/><use xlink:href="#p_H" x="-2.7" y="1.5" class="p_B"/><use xlink:href="#p_K" class="p_B"/><path d="M34.8 80.9c-.4-2.1 2-4 1.4-6-.5-2.2-2.5-2-3.7-.6-.6.6-.7 1.5-1 2.2-.2.6-.7 1.3-.4 2 .5 1 2.7 1.9 3.7 2.4z" class="p_C"/><use xlink:href="#p_L" class="p_C"/><path d="m203 73.2.1.2-.2-.2m-126.7.2.2.1z" class="p_C"/><use xlink:href="#p_H" x="-3.8" y="2.1" class="p_B"/><use xlink:href="#p_C" x="-91.5" y="18.8" class="p_B"/><use xlink:href="#p_J" x="-2.7" y="1.5" class="p_B"/><path d="M252.8 73.6a11 11 0 0 0-.7 7.5c.3 1 1.8 2.7 3 1.7.4-.4.2-1.5.2-2.1.3-2.2.3-4.5.3-6.8z" class="p_F"/><use xlink:href="#p_G" x="-6" y="3.4" class="p_C"/><path d="m168 74 .1.1-.1-.2m3.6 0 .2.2z" class="p_B"/><use xlink:href="#p_I" x="-4.5" y="2.6" class="p_B"/><use xlink:href="#p_G" x="-6.8" y="3.9" class="p_C"/><use xlink:href="#p_I" x="-4.8" y="2.7" class="p_B"/><use xlink:href="#p_E" x="-25.5" y="14.7" class="p_C"/><use xlink:href="#p_J" x="-4.5" y="2.6" class="p_B"/><use xlink:href="#p_H" x="-6.5" y="3.6" class="p_B"/><path d="m200.1 74.9.1.1-.1-.1M73.3 75l.2.1z" class="p_C"/><use xlink:href="#p_H" x="-6.8" y="3.8" class="p_B"/><path d="M46 78.6c-.2-.9-.3-2.5-1-3-.5-.5-2.6-.1-2.6.6 0 1 3 2.1 3.7 2.4z" class="p_C"/><use xlink:href="#p_M" class="p_C"/><use xlink:href="#p_K" x="-4.5" y="2.6" class="p_B"/><use xlink:href="#p_C" x="-95.3" y="20.9" class="p_B"/><use xlink:href="#p_C" x="-96" y="21.3" class="p_B"/><use xlink:href="#p_J" x="-7.2" y="4.1" class="p_B"/><path d="m163.7 76.4.1.1-.2-.1m3.7 0 .1.1-.1-.1m72.1 0 .2.1z" class="p_B"/><use xlink:href="#p_F" x="-11.7" y="6.8" class="p_C"/><use xlink:href="#p_L" x="-6" y="3.4" class="p_C"/><use xlink:href="#p_J" x="-8" y="4.5" class="p_B"/><use xlink:href="#p_I" x="-9.3" y="5.3" class="p_B"/><path d="m239 76.8.1.1-.2-.1m-76.3.1.1.2-.1-.2m3.6 0 .2.2z" class="p_B"/><use xlink:href="#p_F" x="-12.8" y="7.4" class="p_C"/><use xlink:href="#p_I" x="-10.1" y="5.7" class="p_B"/><use xlink:href="#p_D" x="-39" y="22.5" class="p_C"/><path d="m161.3 77.7.1.2-.2-.2m3.7 0 .1.2z" class="p_B"/><use xlink:href="#p_D" x="-39.8" y="22.9" class="p_C"/><use xlink:href="#p_N" class="p_C"/><use xlink:href="#p_I" x="-12" y="6.8" class="p_B"/><use xlink:href="#p_C" x="-100.5" y="23.9" class="p_B"/><use xlink:href="#p_N" x="-.8" y=".4" class="p_C"/><path d="m159.4 78.8.2.1-.2-.2m3.7 0 .1.2-.1-.2m74.2 0 .1.2z" class="p_B"/><use xlink:href="#p_M" x="-6" y="3.4" class="p_C"/><use xlink:href="#p_J" x="-12" y="6.8" class="p_B"/><path d="m84.6 79 .2.2-.2-.1m81.5 0 .1.1z" class="p_D"/><use xlink:href="#p_I" x="-13.8" y="7.8" class="p_B"/><use xlink:href="#p_O" class="p_B"/><path d="m161 80 .1.1-.2-.2m75.4 0 .1.2zM157.7 80.1l.1.2-.2-.2m3 0 .2.2zM160.3 80.3l.2.1-.2-.2m75.6 0 .2.2z" class="p_B"/><path d="m64 80.4.2.1-.1-.1m18.3 0 .1.1-.1-.1m-18.7.1.2.2-.1-.2m18.3 0 .1.2z" class="p_C"/><use xlink:href="#p_D" x="-45" y="25.9" class="p_C"/><path d="m158.3 81.4.1.2-.2-.2m76.9 0 .1.2-.1-.2m31 0 .1.2z" class="p_B"/><use xlink:href="#p_G" x="-19.5" y="11.3" class="p_C"/><path d="M154.6 81.7c-1.6.2-3.6 2-5 2.8l-11.7 6.8L96 115.5l-14.3 8.3c-1 .5-2.4 1.1-3 2-.2.4-.4 1.3.1 1.4.5.2 1-.3 1.4-.5l3.5-2 14.1-8.1 43.3-25.1 11.9-6.9c.7-.4 1.8-.8 2.1-1.7.2-.4.2-1.3-.5-1.2z" class="p_E"/><path d="m153.9 81.9.2.1-.2-.1m1.4 0v.7h.1z" class="p_B"/><path d="m187.8 81.9.1.1-.1-.1M79.5 82l.1.2z" class="p_C"/><path d="m235.2 82 .2.2-.2-.1m30.3 0 .1.1z" class="p_B"/><use xlink:href="#p_E" x="-39" y="22.5" class="p_C"/><path d="m236 82.5.1.1-.2-.1m28.9 0 .1.1z" class="p_B"/><use xlink:href="#p_E" x="-39.8" y="22.9" class="p_C"/><use xlink:href="#p_B" x="-72" y="41.6" class="p_C"/><path d="M212.1 82.8v.1h.9zM186 83l.1.1-.1-.2m25.6 0 .2.2z" class="p_C"/><path d="M211.8 83c-1.9.5-3.2 3-3.4 4.7-.2 1.4.4 3 2 2.7 2-.5 3.4-2.8 3.7-4.8.3-1.5-.5-3-2.3-2.6z" class="p_D"/><path d="m236.7 83 .2.1-.2-.2m-84.9.2.1.1-.1-.1m3.1 0 .2.1z" class="p_B"/><path d="m59.1 83.3.1.1-.1-.2m18.3 0 .2.2-.2-.2m133.6 0 .2.2-.2-.2m2.6 0 .1.2z" class="p_C"/><use xlink:href="#p_L" x="-17.7" y="10.2" class="p_C"/><path d="m185.3 83.4.1.1-.2-.1m28.6 0 .1.1z" class="p_C"/><use xlink:href="#p_P" class="p_B"/><path d="m185 83.6.1.1-.2-.1m25.7 0 .1.1z" class="p_C"/><path d="m237.8 83.6.1.1-.2-.1m25.2 0 .2.1-.2-.1m-108.6.1.2.2zM238 83.7l.2.2-.1-.2m24.5 0 .2.2z" class="p_B"/><path d="m58 83.9.2.1-.1-.1m18.3 0 .1.1z" class="p_C"/><path d="m154 83.9.2.1-.1-.1m84.3 0 .1.1z" class="p_B"/><use xlink:href="#p_F" x="-25.2" y="14.6" class="p_C"/><use xlink:href="#p_L" x="-19.5" y="11.3" class="p_C"/><use xlink:href="#p_Q" class="p_B"/><path d="M239.4 84.4v.2h.8z" class="p_B"/><use xlink:href="#p_I" x="-23.3" y="13.2" class="p_B"/><use xlink:href="#p_L" x="-20.3" y="11.7" class="p_C"/><use xlink:href="#p_G" x="-25.5" y="14.7" class="p_C"/><use xlink:href="#p_R" class="p_B"/><use xlink:href="#p_G" x="-26.3" y="15.1" class="p_C"/><use xlink:href="#p_O" x="-10.5" y="6" class="p_B"/><path d="M214.1 85.8z" class="p_C"/><path d="m259 85.8.2.1-.1-.1m-108.7.1.2.2-.1-.2m108.3 0 .1.2z" class="p_B"/><use xlink:href="#p_N" x="-13.5" y="7.8" class="p_C"/><use xlink:href="#p_S" class="p_B"/><path d="m180.3 86.3.1.1-.1-.2m28.3 0 .2.2z" class="p_C"/><use xlink:href="#p_N" x="-14.3" y="8.3" class="p_C"/><use xlink:href="#p_M" x="-19.5" y="11.3" class="p_C"/><use xlink:href="#p_T" class="p_B"/><path d="m179.3 86.9.1.1-.2-.1m34.6 0 .1.1z" class="p_C"/><use xlink:href="#p_H" x="-27.8" y="15.8" class="p_B"/><use xlink:href="#p_M" x="-20.3" y="11.7" class="p_C"/><use xlink:href="#p_P" x="-6.5" y="3.8" class="p_B"/><use xlink:href="#p_F" x="-31.2" y="18" class="p_C"/><use xlink:href="#p_P" x="-7.2" y="4.2" class="p_B"/><path d="m213.3 87.8.1.1-.1-.2M51 88l.1.1z" class="p_C"/><path d="M199.5 93v.6c2.3-.5 4.8-2.6 6.9-3.8.8-.4 1.8-.8 2-1.7z" class="p_F"/><path d="m255.2 88 .1.2-.2-.1m-108.5.1.1.2z" class="p_B"/><use xlink:href="#p_F" x="-32.3" y="18.6" class="p_C"/><use xlink:href="#p_F" x="-33" y="19.1" class="p_C"/><path d="m141.8 89 .1.1-.2-.2m3.5 0 .2.2-.2-.2m61.2 0 .2.2z" class="p_B"/><use xlink:href="#p_U" class="p_B"/><use xlink:href="#p_D" x="-59.3" y="34.2" class="p_C"/><use xlink:href="#p_N" x="-19.5" y="11.3" class="p_C"/><use xlink:href="#p_N" x="-20.3" y="11.7" class="p_C"/><path d="m140 90 .1.1-.2-.1m3.5 0 .2.1-.2-.1m61.2 0 .2.1zM203.8 90.4l.2.2-.2-.2m1.2 0 .2.2-.2-.2m40.2 22.7-5 5.4c-.4.4-1.5 1.3-1 2 .3.6 1.4.3 2 .2v5c0 .7-.1 1.6.4 2.2.7.8 3 2.2 4.1 2 1.6-.4 3.4-1.9 4.8-2.7l10.5-6c1.4-1 4-1.8 5-3.2.6-1 .2-3 .2-4.2V96c0-1 .3-2.3 0-3.1-.5-1-3-2.4-4-2.4-.9 0-1.7.6-2.4 1l-4.8 2.8-9.1 5.3c-1.4.7-3.3 1.5-4.3 2.6-.5.6-.4 1.4-.4 2v4.5c0 .6-.2 1.6.2 2 .6 1 2.8 2 3.8 2.4z" class="p_B"/><use xlink:href="#p_B" x="-85.5" y="49.4" class="p_C"/><path d="m138.6 90.8.1.1-.1-.2m111.9 0 .1.2z" class="p_B"/><use xlink:href="#p_B" x="-86.2" y="49.8" class="p_C"/><path d="m138.2 91 .1.2-.2-.1m3.5 0 .2.1z" class="p_B"/><use xlink:href="#p_V" class="p_B"/><use xlink:href="#p_L" x="-31.2" y="18" class="p_C"/><path d="M197.3 91.4c-2 .6-3.3 3-3.6 4.9-.2 1.4.6 2.8 2.2 2.5 2-.5 3.4-3 3.6-4.9.2-1.5-.6-2.9-2.2-2.5z" class="p_D"/><path d="m171.2 91.5.1.1-.2-.1m27.7 0 .1.1z" class="p_C"/><path d="m202 91.5.2.1-.1-.1m1.1 0 .2.1-.2-.1m38.3 0 .1.1-.1-.1m7.6 0 .2.1z" class="p_B"/><use xlink:href="#p_Q" x="-12.4" y="7.2" class="p_B"/><path d="m201.8 91.6.1.2-.2-.2m1.2 0 .2.2-.2-.2m38.7 0 .2.2z" class="p_B"/><use xlink:href="#p_F" x="-38.3" y="22.1" class="p_C"/><path d="m170.4 92 .2.1-.2-.2m25.7 0 .1.2-.1-.2m3.1 0 .2.2z" class="p_C"/><path d="m202.5 92 .1.1-.1-.2m45.9 0 .1.2-.1-.2m-108.6.2.1.1z" class="p_B"/><use xlink:href="#p_F" x="-39" y="22.5" class="p_C"/><use xlink:href="#p_P" x="-15" y="8.7" class="p_B"/><path d="m200.7 92.3.2.1-.2-.2m42 0 .2.2zM135.8 92.4l.1.1-.2-.1m107.3 0 .1.1-.1-.1m4.6 0 .2.1z" class="p_B"/><use xlink:href="#p_L" x="-33.8" y="19.5" class="p_C"/><use xlink:href="#p_Q" x="-14.3" y="8.3" class="p_B"/><path d="m200 92.7.1.2-.2-.2m1.2 0 .2.2-.2-.2m42.4 0 .1.2z" class="p_B"/><use xlink:href="#p_G" x="-39" y="22.5" class="p_C"/><path d="m244 93 .2.1-.1-.1m2.5 0 .1.1z" class="p_B"/><use xlink:href="#p_G" x="-39.8" y="22.9" class="p_C"/><use xlink:href="#p_R" x="-14.3" y="8.3" class="p_B"/><use xlink:href="#p_E" x="-58.5" y="33.8" class="p_C"/><path d="M245 93.5h.1m.6 0zM137.3 93.6l.1.2-.2-.2m62.4 0 .2.2-.2-.2m-66.1.2.1.1-.1-.2m3.4 0 .2.2z" class="p_B"/><path d="m167.3 93.8.1.1-.2-.2m32.3 0 .1.2-.1-.2M40.7 94l.1.1-.1-.1M59 94l.1.1z" class="p_C"/><use xlink:href="#p_O" x="-24.8" y="14.3" class="p_B"/><path d="m194.4 93.9.2.1-.2-.1m-154 .1.1.2-.2-.2m18.3 0 .2.2z" class="p_C"/><use xlink:href="#p_S" x="-14.3" y="8.3" class="p_B"/><use xlink:href="#p_K" x="-38" y="21.8" class="p_B"/><use xlink:href="#p_T" x="-14.3" y="8.3" class="p_B"/><path d="m165.2 95 .1.1-.2-.2m28.9 0 .1.2-.1-.2m-155.4.2.1.1-.1-.1m18.3 0 .1.1z" class="p_C"/><use xlink:href="#p_T" x="-15" y="8.7" class="p_B"/><use xlink:href="#p_P" x="-20.7" y="12" class="p_B"/><use xlink:href="#p_K" x="-39.8" y="22.8" class="p_B"/><path d="m163 96.1.2.2-.1-.2m-126.6.2.1.1-.1-.1m18.3 0 .1.1z" class="p_C"/><use xlink:href="#p_C" x="-131.3" y="41.6" class="p_B"/><path d="M193.5 96.4c-2 1.5-4.3 2.6-6.4 3.8-.9.5-2 .9-2.2 2l6.8-4c.7-.3 2.2-.8 1.8-1.8z" class="p_F"/><use xlink:href="#p_P" x="-22.5" y="13.1" class="p_B"/><use xlink:href="#p_G" x="-45.8" y="26.4" class="p_C"/><use xlink:href="#p_P" x="-23.3" y="13.5" class="p_B"/><use xlink:href="#p_D" x="-72.8" y="42" class="p_C"/><use xlink:href="#p_W" class="p_B"/><path d="M193.7 97.3v.1-.1m4.3-.1.1.2-.1-.2m-163.3.2.1.1-.1-.1m18.3 0 .1.1z" class="p_C"/><path d="m126.8 97.6.1.2-.2-.2m3.5 0 .2.2z" class="p_B"/><use xlink:href="#p_N" x="-33.8" y="19.5" class="p_C"/><use xlink:href="#p_V" x="-11.7" y="6.8" class="p_B"/><path d="m126.2 98 .1.1-.1-.2m3.6 0 .1.2-.1-.2m61 0 .2.2z" class="p_B"/><use xlink:href="#p_S" x="-21" y="12.1" class="p_B"/><use xlink:href="#p_M" x="-39.8" y="22.9" class="p_C"/><use xlink:href="#p_X" class="p_B"/><path d="m196.7 98.4.1.1-.2-.1m-164 .1.1.2z" class="p_C"/><use xlink:href="#p_V" x="-13.5" y="7.8" class="p_B"/><use xlink:href="#p_F" x="-50.7" y="29.3" class="p_C"/><use xlink:href="#p_L" x="-45.4" y="26.3" class="p_C"/><use xlink:href="#p_Y" class="p_B"/><use xlink:href="#p_F" x="-51.8" y="29.9" class="p_C"/><use xlink:href="#p_H" x="-49.5" y="28.4" class="p_B"/><use xlink:href="#p_U" x="-18" y="10.4" class="p_B"/><path d="M182.7 99.8z" class="p_C"/><path d="M182.8 99.8c-2 .5-3.4 2.7-3.7 4.6-.2 1.6.4 3.2 2.3 2.8 2-.4 3.3-3 3.5-4.9.2-1.3-.5-2.8-2-2.5z" class="p_D"/><use xlink:href="#p_Q" x="-26.7" y="15.4" class="p_B"/><use xlink:href="#p_F" x="-52.5" y="30.3" class="p_C"/><use xlink:href="#p_U" x="-18.8" y="10.8" class="p_B"/><use xlink:href="#p_D" x="-78" y="45" class="p_C"/><path d="m47.7 100.3.2.2-.2-.2m54.4.2c-1.1.3-2.2 1.2-3.2 1.8l-7.1 4.1-20.1 11.7-7.3 4.3c-.5.3-2 2-.8 2.2.8.2 2-.8 2.7-1.2l7.2-4.2 23.1-13.4c1.9-1.1 4.2-2 5.8-3.4.7-.6 1.2-2.4-.3-2z" class="p_D"/><use xlink:href="#p_P" x="-28.9" y="16.8" class="p_B"/><use xlink:href="#p_P" x="-29.3" y="16.9" class="p_B"/><use xlink:href="#p_D" x="-78.8" y="45.5" class="p_C"/><use xlink:href="#p_W" x="-6" y="3.5" class="p_B"/><use xlink:href="#p_Q" x="-28.5" y="16.5" class="p_B"/><path d="M255.4 109.2c-1.3-.8-2.7-2.7-4.3-3-1.3-.1-2.1 1.3-1.5 2.4.7 1.2 3.9 2.1 4 3.6 0 .6-.6 1.4-.9 2-.8 1.6-3 4.3-3 6.1.2 1.4 2 1.9 2.8.9 1.6-2 2.9-5 3.9-7.3 1 .9 2.7 2.6 4.2 2.9 1.2.2 2.1-1 1.6-2.2-.6-1-2-1.8-3-2.5-.4-.3-1.1-.7-1-1.3 0-2.9 4.2-5.5 3.8-8.5-.1-1.4-2-1.6-2.7-.6a26.2 26.2 0 0 0-3.9 7.5z" class="p_E"/><use xlink:href="#p_I" x="-51.8" y="29.7" class="p_B"/><use xlink:href="#p_V" x="-17.7" y="10.2" class="p_B"/><use xlink:href="#p_R" x="-28.5" y="16.5" class="p_B"/><use xlink:href="#p_R" x="-29.3" y="16.9" class="p_B"/><use xlink:href="#p_O" x="-39" y="22.5" class="p_B"/><use xlink:href="#p_S" x="-28.5" y="16.5" class="p_B"/><path d="m117.9 102.8.2.1-.2-.2m90.3 1.5v1c1-.6 3-1.3 3.3-2.5z" class="p_B"/><use xlink:href="#p_K" x="-52.2" y="30" class="p_B"/><use xlink:href="#p_T" x="-28.5" y="16.5" class="p_B"/><path d="m184.7 103.2.1.2-.2-.2m-157.9.2.2.1-.2-.1m15.9 0 .2.1zM150.3 103.5l.1.1-.1-.1m29 0 .1.1-.2-.1m-152.7.1.2.2z" class="p_C"/><use xlink:href="#p_T" x="-29.3" y="17" class="p_B"/><use xlink:href="#p_P" x="-35" y="20.2" class="p_B"/><path d="m149.3 104.1.1.1-.2-.1m29.9 0 .2.1z" class="p_C"/><path d="m115.3 104.3.2.1-.2-.2m3.5 0 .1.2-.1-.2m-92.6.2.2.1-.2-.1m88.8 0 .2.1z" class="p_B"/><path d="m185 117.8.1.6c2-.8 3.8-2.1 5.5-3.2l12.2-7 4-2.3c.7-.4 1.4-.7 1.6-1.5l-6.7 3.7z" class="p_F"/><use xlink:href="#p_C" x="-145.5" y="49.8" class="p_B"/><path d="M179 104.8c-1.4 1-2.8 1.6-4 2.8-4.7 4.5-5.5 9.7-5.5 16 1.3-.5.5-4.3.6-5.6a17 17 0 0 1 5.4-10c.7-.7 3.9-2.1 3.5-3.2z" class="p_F"/><use xlink:href="#p_P" x="-37.5" y="21.7" class="p_B"/><path d="m113.3 105.5.1.1-.2-.1m3.5 0 .2.1-.2-.1m89.4 0 .1.1z" class="p_B"/><path d="M26 105.8V210h.1V108.6l-.2-2.9m12.5 0 .2.2z" class="p_C"/><use xlink:href="#p_Z" class="p_B"/><use xlink:href="#p_J" x="-59.3" y="34.1" class="p_B"/><use xlink:href="#p_X" x="-13.5" y="7.8" class="p_B"/><use xlink:href="#p_O" x="-47.3" y="27.3" class="p_B"/><use xlink:href="#p_X" x="13.5" y="8.6" class="p_B"/><path d="m110.1 107.3.1.1-.1-.2m65.1 0 .1.2z" class="p_B"/><path d="M180.3 107.3v.1h.8z" class="p_C"/><path d="m175 107.4.2.2-.1-.2m27.7 0 .1.2-.1-.2m1.2 0 .1.2zM109.3 107.7l.2.2-.2-.2m65.4 0 .2.2-.2-.2m1 0 .1.2-.2-.2m26.6 0 .1.2z" class="p_B"/><path d="M99.6 108.2c-1.3 0-2.5.9-3.6 1.5l-6.9 4c-.6.4-3.1 1.7-2 2.8.7.6 2.9-1.2 3.5-1.5l6.3-3.7c1.5-.8 2.7-1.3 2.7-3.1z" class="p_C"/><use xlink:href="#p_Q" x="-41" y="23.7" class="p_B"/><path d="m34.6 108.5.2.1-.2-.1m63.5 0 .1.1-.1-.1m1.5 0v.4h.1z" class="p_D"/><path d="m107.5 108.8.2.1-.2-.2m67.1 0 .1.2-.1-.2m25.8 0 .1.2-.1-.2m-93.2.2.2.1-.2-.1m67.2 0 .2.1zM174.2 109.2l.1.2-.2-.2m25.6 0 .1.2-.2-.2m1.3 0 .1.2zM106.5 109.3l.1.2-.1-.2m66.8 0 .1.2-.2-.2m26.2 0 .1.2-.1-.2m-89.6.2.1.1-.1-.1m63.3 0 .2.1-.2-.1m27.3 0 .2.1z" class="p_B"/><use xlink:href="#p_W" x="6.8" y="12.5" class="p_B"/><use xlink:href="#p_R" x="-42.8" y="24.7" class="p_B"/><use xlink:href="#p_V" x="-4.2" y="18.7" class="p_B"/><path d="m105.5 110 .1.1-.1-.1m68 0 .2.1-.1-.1m-64.8.1.1.2-.1-.2m63.8 0 .2.2-.2-.2m26.8 0 .1.2z" class="p_B"/><use xlink:href="#p_I" x="-77.3" y="38.7" class="p_D"/><use xlink:href="#p_R" x="-43.5" y="25.2" class="p_B"/><path d="m197.8 110.3.2.1-.2-.2m1.2 0 .2.2-.2-.2m-94.3.2.1.1z" class="p_B"/><path d="M33.9 110.5v89.3h.2v-86.7z" class="p_D"/><use xlink:href="#p_I" x="-78.3" y="39.3" class="p_D"/><use xlink:href="#p_S" x="-42.8" y="24.7" class="p_B"/><path d="m172 111 .2.1-.1-.1m.7 0 .1.1-.1-.1m23.7 0 .1.1-.1-.1m-89.6.1.2.2-.2-.2m90.7 0 .1.2z" class="p_B"/><use xlink:href="#p_T" x="-42.8" y="24.8" class="p_B"/><path d="m171.8 111.5.1.1-.2-.1m.8 0 .1.1-.1-.1m23.3 0 .1.1-.2-.1m1.2 0 .2.1-.2-.1m-94.3.1.1.2-.1-.2m92.8 0 .2.2-.2-.2m-89.5.2.2.1-.2-.2m65.7 0 .1.2-.1-.2m24.9 0 .1.2z" class="p_B"/><use xlink:href="#p_K" x="-77.7" y="39" class="p_D"/><use xlink:href="#p_T" x="-43.5" y="25.2" class="p_B"/><use xlink:href="#p_H" x="-81.7" y="41.3" class="p_D"/><use xlink:href="#p_P" x="-50" y="28.9" class="p_B"/><path d="m171.9 112.5.2.1-.2-.1m22 0 .2.1-.1-.1m1.1 0 .2.1-.2-.1m-94.3.1.2.2zM193.7 112.7l.1.1-.2-.1m-93.1.1.2.2-.2-.2m3.6 0 .2.2z" class="p_B"/><use xlink:href="#p_P" x="-51" y="29.5" class="p_B"/><path d="m192.6 113.3.1.1-.1-.2m-89.6.2.2.1-.2-.1m68.4 0 .2.1-.2-.1m22.2 0 .2.1-.2-.1m-94.3.1.1.2-.1-.2m3.4 0 .2.2-.2-.2m68 0 .1.2-.1-.2m21.4 0 .2.2-.2-.2m1.2 0 .2.2z" class="p_B"/><use xlink:href="#p_J" x="-82.2" y="41.6" class="p_D"/><path d="m171.3 113.7.1.2-.1-.2m20.6 0 .1.2-.1-.2m1.1 0 .2.2-.1-.2m-94.4.2.2.1z" class="p_B"/><path d="M44.9 114v8.7h.1v-5.8z" class="p_C"/><use xlink:href="#p_S" x="-49.5" y="28.6" class="p_B"/><path d="m170.8 114.8.2.1-.2-.2m19.2 0 .2.2-.2-.2m1.2 0 .2.2zM189.8 114.9l.1.2-.2-.2m-89.5.2.2.1-.2-.1m69.9 0 .1.1-.1-.1m-73.7.1.2.2-.2-.2m3.5 0 .1.2-.1-.2m70.8 0 .2.2-.2-.2m18.6 0 .1.2-.1-.2m1.2 0 .1.2zM170 115.6v.1-.1m18.7-.1.2.1-.2-.1m-89.6.1.2.2-.2-.2m71.5.1v.1m19.1-.2.2.2-.2-.2m-94.3.2.1.1-.1-.1m3.5 0 .1.1-.1-.1m89.3 0 .2.1-.2-.1m1.2 0 .2.1zM188 116l.1.1-.2-.1m1.2 0 .2.1-.2-.1m-90.7.1.2.2z" class="p_B"/><path d="M182.8 116.2c-2 .4-3.4 3-3.6 4.9-.2 1.2.4 2.8 1.8 2.5 2.3-.3 3.7-2.9 4-5 .2-1.3-.7-2.7-2.2-2.4z" class="p_D"/><path d="m98.1 116.3.2.1-.2-.2m72.3 0 .2.2-.2-.2m18.3 0 .2.2z" class="p_B"/><path d="M84.4 116.5c-1.6.2-3.8 2.1-5.2 3l-12 7c-1.1.6-2.7 1.2-3.5 2.2-.3.4-.7 1.5 0 1.7.4.1 1.1-.4 1.6-.7l3.6-2 13.6-8c.8-.5 2-1 2.4-1.8.2-.4.3-1.5-.5-1.4z" class="p_C"/><path d="m84.8 116.4.1.2-.2-.2m2.2 0 .1.2z" class="p_D"/><path d="M169.7 116.8v.1z" class="p_B"/><path d="M212 116.8c-2 .6-3.3 2.8-3.6 4.7-.2 1.5.5 3 2.2 2.6 2-.5 3.3-3 3.6-4.8.1-1.4-.6-3-2.3-2.5zM85 116.8v.5h.2z" class="p_D"/><path d="m186.2 117 .1.1-.2-.1m1.3 0 .1.1z" class="p_B"/><use xlink:href="#p_a" class="p_B"/><use xlink:href="#p_Q" x="-57" y="33" class="p_B"/><path d="M169.5 117.8v.4h.1l-.1-.5m.6 0v.5h.2l-.2-.5m-74.8.2.1.1-.2-.1m90.7 0 .1.1z" class="p_B"/><path d="M214.1 118v.1z" class="p_C"/><use xlink:href="#p_R" x="-57.8" y="33.4" class="p_B"/><use xlink:href="#p_S" x="-57" y="33" class="p_B"/><path d="m89.4 119.3.1.1-.1-.2m3.3.2.2.1z" class="p_B"/><use xlink:href="#p_S" x="-57.8" y="33.4" class="p_B"/><use xlink:href="#p_T" x="-57" y="33" class="p_B"/><path d="m88.4 119.8.1.2-.1-.2m3.5 0 .2.2-.1-.2m-.4.2.2.1z" class="p_B"/><use xlink:href="#p_T" x="-57.8" y="33.5" class="p_B"/><path d="m179.3 120.2.1.1-.2-.1m5.3 0 .1.1-.1-.1m24.1 0 .2.1-.2-.1m5.3 0 .1.1z" class="p_C"/><path d="m86.9 120.8.1.1-.1-.2m3.4 0 .1.2-.1-.2m62.3 0v.2h.4z" class="p_B"/><path d="M137.4 129.6c4.8-2 9-5.8 13.8-7.7 3-1.3 5.7.4 6.1 3.6.2 1.7 0 3.5 0 5.1 1-.3.7-1.7.7-2.5 0-2.4 0-5.2-2.3-6.7-1.4-.9-3.3-.7-4.8 0-3.3 1.2-6.4 3.4-9.4 5.2-1.2.7-3.9 1.6-4.1 3z" class="p_F"/><path d="M153.8 120.8v.1h.4z" class="p_B"/><path d="M179.2 120.8v.1m5-.2.2.2z" class="p_C"/><path d="m86.6 120.9.1.2-.1-.2m65.3 0 .1.1h-.1m2.7-.1.2.2z" class="p_B"/><path d="m184 121 .2.2-.1-.2m24.3.1v.2z" class="p_C"/><use xlink:href="#p_Q" x="-63.4" y="36.8" class="p_B"/><path d="M179 121.2c-1.5 1-3 1.8-4.6 2.7-.7.4-1.5.6-1.6 1.5 1.7-.5 3.4-1.8 5-2.7.5-.3 1.5-.7 1.1-1.5z" class="p_F"/><path d="m85.8 121.3.1.2-.1-.2m3.5 0 .1.2-.2-.2m61.4 0 .2.2-.2-.2m2.1 0v.2h.4z" class="p_B"/><path d="M131.6 133c-2.7 1.3-5.2 3-7.7 4.4-4.8 2.8-9 5.2-11.2 10.7-1.2 2.9-1.1 5.9-1.1 9 1.4-.3 2.2 0 2.7 1.5a20 20 0 0 0 6-3.6c1.3-1.4 1.2-3.2 2.8-4.5 1.4-1 2.8-.7 3.3 1 2.3-.8 4.4-2.4 6.5-3.6l13.5-7.8 5.7-3.3c.7-.4 1.9-.9 2.4-1.6.5-.6.5-1.5.9-2.1.5-1 1.5-1.7 1.9-2.6.2-.7 0-1.6 0-2.3 0-2.1.2-5-2-6.3-1.5-.9-3.4-.4-4.9.3-3 1.5-5.9 3.4-8.8 5-1.2.7-3 1.4-4 2.4-.9 1-1 2.8-2 3.9-1.3 1.3-3.6 2-4-.4z" class="p_E"/><path d="M153.6 121.3v.2h.4l-.4-.2m25 0 .2.2-.2-.2m-93.1.2.1.1-.1-.1m3.6 0 .1.1-.1-.1m63 0v.1m2.4-.1.1.1-.1-.1m1.4 0 .1.1-.1-.1m22.5 0 .1.1z" class="p_B"/><path d="m183.8 121.5.1.1-.2-.1m29.6 0 .1.1z" class="p_C"/><path d="m151.5 121.7.1.1-.1-.1m4.5 0 .1.1-.1-.1m22 0 .2.1-.1-.1m-93 .1.1.2-.1-.2m3.4 0 .1.2z" class="p_B"/><path d="m208.2 121.8-6.3 3.6c-.8.5-2 1-2.3 2 2.4-.8 4.7-2.6 6.8-3.8.7-.4 2.1-.9 1.8-1.8z" class="p_F"/><path d="m84.8 122 .1.1-.2-.1m64.7 0 .1.1-.1-.1m1.3 0 .2.1-.2-.1m4.7 0 .1.1-.1-.1m22.2 0 .1.1-.1-.1m1.2 0 .1.1z" class="p_B"/><path d="M179 122c-1.8 1-4.6 2-6 3.5-.4.5-.5 1.3-.7 1.9-.4 1-1.2 1.9-2 2.6-1.4 1-3 .8-3.4-1-1.5.6-3 1.6-4.3 2.4-.6.3-1.4.7-1.9 1.2-1 1.3-1 3-2.3 4.1-1.4 1.3-3 1.3-3.8-.6-7 3.3-13.9 7.9-20.7 11.9l-5.2 3c-.7.4-1.8.8-2.2 1.4-.4.8-.5 1.8-1 2.5-.4.7-1.2 1.2-1.5 2-.3.8-.1 2-.1 2.8 0 2.6-.5 6.4 2.5 7.4 2.9 1 5.9-1.4 8.2-2.7l10.8-6.3c1.2-.7 3.2-1.4 4.2-2.5.7-.8.8-2.3 1.5-3.2 1.3-1.6 3.8-3 4.6-.3 3-1.4 6-3.4 8.9-5 3.2-2 7-3.6 9.9-6 3.5-3 5.6-7.5 5.6-12.1 0-2.5.5-5-1.1-7z" class="p_E"/><path d="M179.2 122v.1m4.3-.2.1.2z" class="p_C"/><path d="m207.8 122 .1.1-.2-.1m-123.2.1.1.2-.1-.2m3.6 0 .1.2-.1-.2m61 0 .2.2-.2-.2m1.4 0 .1.2-.1-.2m26.8 0 .2.2-.2-.2m1.2 0 .2.2zM150.2 122.3l.1.1-.2-.2m6.5 0 .2.2z" class="p_B"/><path d="M183.3 122.3c-.7.9-.4 2.1-.4 3.3 0 2.6-.2 6.5 2.8 7.6 2.2.8 4.3-.1 6.2-1.2.7-.4 1.6-.7 1.7-1.6-1.4.4-2.6 1.5-4 2-.7.3-1.4.5-2.1.5-4.4 0-4-5.2-4-8.3 0-.7.1-1.6-.2-2.3z" class="p_F"/><path d="m148.7 122.4.1.2-.2-.2m1.3 0 .1.2-.1-.2m6.9 0 .1.2-.1-.2m21.3 0 .1.2-.1-.2m28.9 0 .1.2zM83.7 122.5l.2.2-.2-.2m64.7 0 .1.2-.1-.2m1.1 0 .2.2-.1-.2m27 0 .1.2-.1-.2m1.1 0 .2.2zM206.7 122.5l.2.2-.2-.2m-161.8.2v72.9h.1v-66.5c0-1.8.6-4.7-.2-6.4zM83.4 122.7l.1.2-.1-.2m3.6 0 .1.2-.1-.2m61 0 .2.2-.1-.2m28.1 0 .2.2zM207.8 122.7l.1.2-.2-.2m-124.4.2.1.1-.2-.1m3.5 0 .2.1z" class="p_B"/><path d="M208.4 123z" class="p_C"/><use xlink:href="#p_S" x="-63.8" y="36.9" class="p_B"/><path d="m147.6 123 .1.1-.1-.1m1.2 0 .1.1-.1-.1m28.2 0 .1.1-.1-.1m29 0 .1.1-.2-.1m-123.3.1.2.2-.2-.2m64.7 0 .1.2-.1-.2m1.2 0 .1.2-.1-.2m8.7 0 .1.2z" class="p_B"/><path d="M170.4 123.3c-2 .5-3.2 2.9-3.5 4.8-.2 1.5.7 3 2.3 2.5 2-.6 3.3-3 3.5-4.9.3-1.5-.6-3-2.3-2.4z" class="p_D"/><use xlink:href="#p_Y" x="-12.8" y="23.7" class="p_B"/><use xlink:href="#p_O" x="-75.8" y="43.8" class="p_B"/><path d="m148 123.5.2.1-.1-.1m9.3 0 .1.1-.1-.1m18.8 0 .2.1zM205.2 123.5l.2.1-.2-.1m1.2 0 .2.1-.2-.1m-124.5.1.2.2-.2-.2m3.5 0 .1.2-.1-.2m61.2 0 .1.2-.1-.2m1.1 0 .2.2-.2-.2m9 0 .2.2-.2-.2m18 0 .2.2-.2-.2m1.2 0 .2.2-.2-.2m4.2 0v6.8h.2c0-2 .6-5-.2-6.8z" class="p_B"/><path d="M180.3 123.6c0 2.6.2 5.3-.2 7.8-1 5-4.3 9.1-8.7 11.6l-12 7c-1 .6-3.6 1.4-3.7 2.8 3.5-1.8 6.9-4 10.4-6 5.6-3.1 11-5.9 13.7-12.3 1-2.6 1-5.2 1-8 0-1 .3-2.4-.5-2.9z" class="p_F"/><path d="M180.8 123.7h.1zM208.7 123.6l.1.1-.2-.1m2.9 0 .2.1z" class="p_C"/><path d="m81.6 123.8.2.1-.2-.2m3.6 0 .2.2-.2-.2m61 0 .2.2z" class="p_B"/><path d="m169.2 123.8.2.1-.2-.2m3.2 0 .1.2z" class="p_C"/><path d="m174.4 123.8.2.1-.2-.2m1.2 0 .2.2-.2-.2m5.2 0v6.7h.1c0-2 .6-5-.1-6.7z" class="p_B"/><path d="M59.1 124c-.6.1-1.2.6-1.7.9-1.1.7-3.2 1.4-4 2.6-.4.6-.7 3.4.3 3.4.6 0 1.2-.5 1.7-.8 1.2-.7 3.5-1.6 4.2-2.9.3-.6.7-3.4-.5-3.2z" class="p_E"/><path d="m146 123.9.1.2-.2-.2m11.6 0 .1.2zM174.2 123.9l.1.2-.2-.2m30.4 0 .1.2-.1-.2m1.1 0 .2.2zM147 124l.1.2-.1-.2m9.9 0 .1.2-.1-.2m18.3 0 .2.2-.2-.2m29 0 .1.2-.2-.2m1.3 0 .1.2z" class="p_B"/><path d="m209.3 124 .1.2-.2-.2m1.4 0 .2.2zM210 124.3z" class="p_C"/><path d="M157.1 124.6v.1zM174.2 124.7l.1.1-.2-.1m29 0 .2.1-.2-.1m1.2 0 .2.1-.2-.1m-146.8.1.1.2zM157.8 125.1v.4h.1z" class="p_B"/><path d="M197.6 125.2c-2.2.4-3.5 2.7-3.8 4.7-.3 1.2.2 3 1.8 2.7 2.2-.3 3.6-2.8 4-4.8.2-1.3-.5-3-2-2.6z" class="p_D"/><use xlink:href="#p_V" x="-.5" y="34" class="p_B"/><path d="m79 125.3.2.1-.1-.2m65.8 0 .2.2-.2-.2m12.3 0v.5h.2zM202 125.3l.2.1-.1-.2m-145.7.2.2.1-.2-.1m22.5 0 .2.1-.2-.1m3.5 0 .1.1-.1-.1m61 0 .2.1-.2-.1m1.2 0 .2.1-.2-.1m28.2 0 .2.1zM78.8 125.5l.1.2-.2-.2m3.4 0 .1.2-.1-.2m61 0 .2.2z" class="p_B"/><path d="m111.8 125.7.1.2-.2-.2m61 .1v.1z" class="p_C"/><path d="m81.3 126 .1.1-.1-.1m61 0 .2.1-.1-.1m1.2 0 .1.1-.1-.1m58.5 0 .1.1-.1-.1m-147 .1.1.2-.1-.2m25.9 0 .1.2z" class="p_B"/><use xlink:href="#p_X" x="10.5" y="27.8" class="p_B"/><path d="m167.3 126.5.1.1-.2-.1m5.3 0 .1.1z" class="p_C"/><path d="m200 126.5.1.1-.2-.1m-145.6.1.1.2zM78.3 126.6v.4h.1l-.1-.4m2 0 .1.1-.2-.1m61.1 0 .1.1-.1-.1m1.2 0 .1.1-.1-.1m58.5 0 .1.1-.1-.1m-147 .1.1.2-.1-.2m26 0 .1.2z" class="p_B"/><path d="m167.1 126.8.1.1-.1-.2m32.4 0 .1.2z" class="p_C"/><path d="m200.7 126.8.2.1-.2-.2m-146.8.2.1.1-.2-.1m5.9 0 .1.1zM79.5 127l.1.2-.1-.2m61 0 .2.2-.1-.2m1.1 0 .2.2z" class="p_B"/><path d="M135.2 127.3c-2 .6-3.3 2.8-3.6 4.7-.2 1.6.6 3.1 2.4 2.6 1.8-.5 3.2-2.9 3.4-4.7.1-1.4-.5-3.1-2.3-2.6z" class="p_D"/><path d="m140.3 127.2.1.2-.2-.2m1.2 0 .2.2-.2-.2m58.5 0 .2.2z" class="p_B"/><path d="m167 127.3.1.2-.2-.2m5.3 0 .2.2z" class="p_C"/><path d="m199.7 127.3.1.2-.2-.2m-146.3.2.1.1z" class="p_B"/><path d="M75 127.8c-1.2.2-2.4 1.3-3.4 1.9l-7 4c-.4.2-2.3 2.3-.8 2.4.9.1 2.3-1.2 3.1-1.6 2.6-1.5 6-2.8 8.2-4.8.5-.5 1.1-2.2-.1-2z" class="p_C"/><use xlink:href="#p_Y" x="-48.8" y="28.2" class="p_B"/><path d="M53 128.1v2.5h.1z" class="p_B"/><path d="m67.8 128.1.1.1-.1-.1m6.3 0 .2.1-.2-.1m1.7 0v.4h.1z" class="p_D"/><path d="M137.3 128.3v.1z" class="p_C"/><path d="m138.4 128.3.2.1-.2-.2m1.2 0 .2.2-.2-.2m27 0 .2.2zM58 128.4l.2.2-.1-.2m80 0 .2.2-.2-.2m1.3 0 .1.2-.1-.2m27 0 .1.2z" class="p_B"/><path d="m160.5 132.6 4.5-2.6 2-1.5-.2-.1c-1.7.5-3.3 1.8-4.8 2.6-.7.4-1.4.7-1.5 1.6z" class="p_F"/><path d="M183.4 128.4v.6h.2zM137.8 128.6l.2.1-.2-.1m45 0v.4h.2l-.2-.4m-125.2.1.1.2z" class="p_B"/><path d="m66.8 128.7.1.2-.2-.2m6.4 0 .1.2z" class="p_D"/><path d="M83.4 129.2c-4 1.4-7.8 4.4-11.4 6.6-.6.3-3.6 2-2.3 3 .8.5 3.1-1.4 3.8-1.8l7-4.2c.8-.4 2.3-1 2.7-1.7.3-.5.2-1.4.2-2m22.3 0 .2.2z" class="p_C"/><path d="M63.1 129.6v.4h.2z" class="p_D"/><path d="m164.1 129.8.1.1-.1-.2m1.2 0 .1.2-.1-.2m17.7 0 .1.2-.1-.2m-127.5.2.1.1z" class="p_B"/><use xlink:href="#p_X" x="-26.3" y="31.5" class="p_B"/><path d="m170.3 129.9.1.2-.2-.2m23.5.1v.1zM158.7 130v.2h.4z" class="p_C"/><path d="M158.3 130.3c-1.9.5-3.3 2.7-3.5 4.6-.1 1.4.2 3.2 2.1 2.7 1.9-.4 3.4-2.7 3.6-4.5.1-1.6-.3-3.4-2.2-2.8z" class="p_D"/><path d="M183.2 130.3v.1-.1m10.3-.1.1.2-.1-.2m-138.7.2.1.1z" class="p_B"/><use xlink:href="#p_V" x="-39.8" y="39.3" class="p_B"/><path d="m131.8 130.7.2.1-.2-.2m25.4 0 .1.2z" class="p_C"/><path d="m183.3 130.7.1.1-.1-.2m9.4 0 .2.2-.2-.2m-139.6.2.1.1zM53.5 131h.1zM162 131l.1.1-.1-.2m1.2 0 .2.2-.2-.2m29 0 .1.2z" class="p_B"/><path d="M193.7 131v.1m4.3-.2.1.2-.1-.2m-66.3.2.2.1-.2-.1m28.7 0 .1.1z" class="p_C"/><path d="M59.1 131.4c-.6 0-1.2.5-1.7.8-1.2.7-3.2 1.5-4 2.7-.4.5-.7 3.4.3 3.3.5 0 1-.4 1.5-.7 1.3-.7 3.6-1.5 4.3-2.8.4-.6.8-3.5-.4-3.3z" class="p_E"/><path d="M180.7 131.3v.1m11-.2.2.2-.2-.2m1.2 0 .2.2-.2-.2m-134.3.2.2.1-.1-.1m1 0 .2.1zM161 131.6l.1.1-.2-.1m1.2 0 .2.1-.2-.1m21.7 0 .1.1-.1-.1m.7 0 .1.1zM160.7 131.7l.1.2-.2-.2m24 0 .2.2-.2-.2m7.6 0 .1.2-.2-.2m-134.2.2.2.1zM161.7 131.8l.2.2-.2-.2m18.2.1v.2-.2m4.9 0 .1.1-.1-.2m5.8 0 .2.2-.2-.2m1.3 0 .1.2zM161.1 132.2l.1.1-.1-.2m23.1 0 .1.2-.1-.2m.9 0 .1.2-.1-.2m5 0 .1.2-.2-.2m-132.9.2.2.1z" class="p_B"/><path d="M131.4 132.3c-4.4 3.2-10 5-14.3 8.5a17.8 17.8 0 0 0-5.6 9c-.7 2.5-.5 5-.5 7.6 1-.4.6-1.8.6-2.6 0-2.6.3-5 1.4-7.4 2.6-5.7 7.7-8.1 12.9-11l4.5-2.7c.5-.3 1.3-.6 1-1.4z" class="p_F"/><path d="m180.3 132.7.1.1v-.1m5.6-.1.1.1-.1-.1m2.9 0 .1.1-.1-.1m1.6 0 .1.1zM186.4 132.8l.2.1-.2-.2m3.8.1.2.1-.2-.2m-134.1.2.1.1z" class="p_B"/><use xlink:href="#p_V" x="-72.8" y="42" class="p_B"/><path d="m179.6 133 .1.2-.1-.1m5.8 0 .2.1-.2-.1m4 0 .2.1zM180.2 133.2l.1.2-.2-.2m5.8 0 .1.2-.1-.2m3.1 0 .1.2-.1-.2m-133.6.2.1.1-.1-.1m75.4 0 .1.1z" class="p_B"/><path d="M131.6 133.4v.2-.2m4 0 .1.1-.1-.1m19.5 0 .1.1-.1-.1m5.3 0 .1.1z" class="p_C"/><path d="M186.4 133.4h.1-.1m2 0 .1.1-.1-.1m-133.4.1.2.1z" class="p_B"/><use xlink:href="#p_V" x="-73.5" y="42.4" class="p_B"/><path d="m68.1 133.7.2.1-.2-.2m10.8 0 .2.2z" class="p_D"/><use xlink:href="#p_Y" x="-59.3" y="34.2" class="p_B"/><path d="m180 133.7.1.1-.1-.2m-125.4.2.1.1z" class="p_B"/><use xlink:href="#p_S" x="-15" y="47.7" class="p_C"/><path d="m54.3 134 .1.1-.1-.2m75.5 0 .1.2zM128.3 134.1l.1.1-.2-.1m1.2 0 .2.1z" class="p_B"/><path d="m67 134.3.2.1-.1-.2m7.3 0 .2.2z" class="p_D"/><path d="m132 134.3.1.1-.1-.2m2.6 0 .1.2-.1-.2m20.2 0 .1.2-.1-.2m5.3 0 .1.2z" class="p_C"/><path d="m179.1 134.3.1.1-.1-.2m-51.5.2.2.1z" class="p_B"/><path d="m132.2 134.4.1.2-.2-.2m2.2 0 .1.2zM132.9 134.7v.2h.6z" class="p_C"/><path d="m179 134.7.1.2-.2-.2m-125.7.2.2.1z" class="p_B"/><path d="M154.7 134.8v.5h.1z" class="p_C"/><path d="m179.6 134.8.1.2-.1-.2m18.4 0v.2h.4z" class="p_B"/><path d="M193.8 154h.1l.7-3.7c-.6 0-1 .1-1.5-.2-1.4-1-1.7-3.4 0-4.2 1-.5 2.2 0 2.3 1.2l-.3 1.8c1.9-.6 1-3 2.5-4.2 2.4-1.9 7.4.2 9-3.1 1.8 1.3 1.5 3.9 1.5 5.8 1.1-.9 1-1.9 1.4-3 .2-.7.9-1 1.2-1.6.6-1.3-.3-2.6-1.6-2.9.2-.8.7-1.6.6-2.5-.5-2.5-5.4-2-7.3-2.3-5.5-.6-12.2 1.5-12.6 8-.3 4.4 2.2 7.2 4 11z" class="p_F"/><path d="M200.7 134.8v.2h.4l-.4-.2m-141.4.2.1.1-.1-.1m119.5 0 .1.1-.1-.1m18.4 0 .2.1-.2-.1m4.8 0 .1.1h-.1m-148.9 0 .1.2-.1-.2m74.5 0 .2.2zM179.4 135.2l.2.1-.2-.2m17.3 0 .1.2-.2-.2m6.5 0v.2h.9l-.9-.2m-144.3.2.2.1z" class="p_B"/><path d="M63.1 135.3v.4h.2l-.2-.4m2.2 0 .1.1-.2-.1m7.4 0 .2.1z" class="p_D"/><path d="M126.5 152.3c2.3-1 4.6-2.7 6.9-4l14.5-8.4 5.1-3c.8-.3 1.6-.7 1.8-1.6-2.8 1-5.4 3-8 4.5l-13.7 8-5 2.8c-.7.5-1.6.7-1.6 1.7z" class="p_F"/><path d="m178.7 135.3.1.1-.2-.1m17.6 0 .2.1-.2-.1m8.9 0v.1h.6l-.6-.1m-152.1.1v2.6h.1zM125.8 135.4l.2.2-.2-.2m28.4 0 .1.2-.1-.2m25 0 .2.2-.2-.2m16.5 0 .2.2-.2-.2m10.7 0v.2h.4l-.4-.2m-148 .2v.1zM178.5 135.6l.1.1-.1-.1m17 0 .1.1-.2-.1m12.2 0 .1.1-.1-.1m-149.5.1.1.2z" class="p_B"/><path d="m64.5 135.8.1.1-.1-.2m7.4 0 .1.2z" class="p_D"/><path d="m126.6 135.8.1.1-.1-.2m52.5 0 .1.2-.1-.2m29.1 0 .1.2-.1-.2m-150.5.2.2.1zM124.8 136l.1.2-.1-.1m28.3 0 .2.1-.2-.1m1.3 0 .1.1z" class="p_B"/><path d="M154.7 136.2z" class="p_C"/><path d="m179 136 .1.2-.2-.1m29.9 0 .1.1-.1-.1m-151.5.1.1.2zM178.2 136.2l.2.2-.2-.2m16 0 .2.2-.1-.2m-137.3.2.1.1-.1-.1m68.6 0 .1.1-.1-.1m28.3 0 .2.1z" class="p_B"/><use xlink:href="#p_Z" x="-53.3" y="30.8" class="p_B"/><path d="m56.6 136.7.1.1-.1-.2m67.2 0 .1.2-.2-.2m28.4 0 .2.2z" class="p_B"/><use xlink:href="#p_K" x="-15" y="63.8" class="p_C"/><use xlink:href="#p_U" x="-50.3" y="48.3" class="p_C"/><path d="m122 137.7.1.2-.1-.2m1.1 0 .2.2-.2-.2m27.2 0 .1.2-.1-.2m1.2 0 .1.2-.1-.2m-97 .2.1.1-.2-.1m67.2 0 .2.1-.2-.1m28.4 0 .1.1-.1-.1m27.1 0 .2.1-.2-.1m.8 0 .1.1-.1-.1m-123.8.1.2.1zM121.2 138.2l.2.1-.2-.2m1.2 0 .2.2-.2-.2m27.2 0 .1.2-.1-.2m1.1 0 .2.2-.2-.2m-97.2.3h.1-.1m29.9-.1v4.4h.1zM120.9 138.3l.2.1-.2-.1m1.2 0 .2.1-.2-.1m27.2 0 .1.1-.1-.1m1.1 0 .2.1-.1-.1m26.4 0 .1.1-.1-.1m.7 0 .2.1-.2-.1m14.1 0 .2.1-.2-.1m17.9.1v.1z" class="p_B"/><path d="M59.1 138.7c-.6.1-1.2.6-1.7.9-1.1.7-3.2 1.4-4 2.6-.4.6-.7 3.4.3 3.4.6 0 1.2-.5 1.7-.8 1.2-.7 3.5-1.5 4.2-2.9.3-.6.7-3.4-.5-3.2z" class="p_E"/><path d="m120.2 138.8.1.1-.1-.2m1.2 0 .1.2-.1-.2m27.1 0 .1.2-.1-.2m1.2 0 .2.2-.2-.2m27.6 0 .2.2-.2-.2m-118.8.2.2.1z" class="p_B"/><path d="m84.8 138.9.1.2-.2-.2m4.1 0 .1.2z" class="p_C"/><path d="m119.5 139 .2.2-.2-.1m56.7 0 .2.1-.2-.1m14.9 0 .1.1-.1-.1m-133.2.1.2.2-.2-.2m62.7 0 .2.2-.2-.2m28.4 0 .1.2-.1-.2m60.3 0 .1.2z" class="p_B"/><path d="m86.6 140 .1.1-.1-.2m.4 0 .1.2z" class="p_C"/><path d="m119.3 140 .1.1-.2-.2m27.2 0 .1.2-.1-.2m1.2 0 .1.2-.1-.2m62 0 .1.2-.1-.2m-153.2.2.2.1-.2-.1m61.5 0 .2.1-.2-.1m28.2 0 .2.1-.2-.1m29.3 0 .1.1-.1-.1m15.1 0 .1.1-.1-.1m19.4 0 .1.1-.1-.1m-153.8.1.2.2-.2-.2m62.7 0 .2.2-.2-.2m28.4 0 .1.2-.2-.2m28.1 0 .2.2-.2-.2m-119.4.2.1.1-.1-.1m61.6 0 .2.1-.2-.1m28.2 0 .2.1-.2-.1m1.3 0 .1.1-.1-.1m28.1 0 .2.1-.1-.1m15.3 0 .1.1-.1-.1m-73.1.1.1.2-.1-.2m1 0 .2.2-.1-.2m27 0 .1.2-.1-.2m1.1 0 .2.2-.1-.2m-91.2.2.1.1-.1-.1m89.7 0 .1.1-.1-.1m65.3 0 .2.1-.2-.1m-155.4.1.2.2-.2-.2m62.9 0 .1.2-.1-.2m28.2 0 .1.2-.1-.2m-28.4.2.2.1-.2-.1m26.9 0 .1.1-.1-.1m1.2 0 .1.1-.1-.1m64.8 0 .1.1-.1-.1m-156 .1.1.2-.1-.2m89.7 0 .1.2-.1-.2m29.8 0 .2.2-.2-.2m16 0 .1.2-.2-.2m-135.7.2.1.1-.1-.1m119.7 0 .1.1-.1-.1m36.8.1v.1-.1m-156.8 0 .1.2-.1-.2m62.2 0 .2.2-.2-.2m1 0 .1.2-.2-.2m28 0 .1.2-.2-.2m29.7 0 .2.2-.2-.2m-115 .2.1.1-.1-.1m56.4 0 .1.1-.1-.1m.9 0 .1.1-.1-.1m26.5 0 .2.1-.2-.1m1.2 0 .2.1-.2-.1m29.9 0 .1.1-.1-.1m32 0c-2.3 3-6.3 1.1-9 3-1.5 1-.7 3.5-2.5 4.3l.3-1.6c.1-1.5-1.7-2.1-2.8-1.3-1.8 1.5-.3 4.8 2 4.3-.5 2-1.5 5.2-1.2 7.2.2 1.4 1.8 3.3 2.8 4.3.7.7 3.8 3.6 4.8 2.4.5-.6.3-2 .2-2.7-.3-2.2-1.2-3.9-.8-6.1 1.3.3 2.7 1 4 .5 2.8-.9 3.2-5.5 3.5-7.9.2-1.8.7-5.4-1.4-6.4m-90.6.1.2.2-.2-.2m1 0 .1.2-.2-.2m26.4 0 .2.2-.2-.2m30.2 0 .1.2-.1-.2m1 0 .2.2-.2-.2m15.5 0 .1.2-.1-.2m-130.4.2.2.1-.2-.1m56.3 0 .1.1-.1-.1m.9 0 .1.1-.1-.1m27.6 0 .1.1-.1-.1m-27.8.1.2.2-.2-.2m26.3 0 .1.2-.1-.2m1.2 0 .1.2-.1-.2m29 0 .1.2-.2-.2m1 0 .2.2z" class="p_B"/><path d="M236.1 175.7c-7.1-3.4-13.9-8-20.7-12l-4.7-2.6c-.9-.6-1.6-1.2-2.6-.6.6 2.7-1.1 5.4-1.1 8.1h.1v-2c.4.3 1 .6 1.1 1.1.2.7-.6 1.3-1.2 1.2h-.1a6.7 6.7 0 0 1-1.4 3.3c-.3.4-1 1-1 1.6a118.2 118.2 0 0 0 4.2 4c2.3 2 4 3.5 6.8 4.3.7.2 1.4.9 2 .7 1.2-.2 2.5-1.4 3.6-2l7-4c.8-.5 3-2.3 4-2 .4.2.5.9.5 1.3 0 1.4-.4 2.8-.7 4.2l-1.1 7c-.2 1-.2 2.4-.8 3.2-1 1.5-3.4 2.1-4.9 3.2v.1c.4.3.9.8 1.4.8.8 0 2-1 2.7-1.4l6.6-3.9 6.6-3.8c1-.5 2.4-1 3-2 .6-1-.1-1.7-.2-2.7a40.7 40.7 0 0 1 10.3-17.4c1-1.2 3.2-3.9 4.9-3.8-1.5 1.7-3.5 3-5 4.7a43 43 0 0 0-7.5 10.5c-.9 1.7-2.3 4.4-2.2 6.4 0 1.2 1.5 2.5 1.8 3.8.7-.5 1-1.6 1.5-2.3a75.3 75.3 0 0 1 11.1-12.7c1.7-1.7 3.7-3.3 4.4-5.7 1-3.8-1.3-7.8-5.4-7.7-2.7 0-5.4 1.6-7.4 3.3 2-4.3 7-9 6.4-14.1-.3-2.5-3-3.7-5.3-3.7-4.7-.1-8.2 3.1-10.7 6.7-5.5 8-6 17.4-6 26.9z" class="p_D"/><path d="M253.8 142.1z" class="p_C"/><path d="m59.3 142.3.1.2-.1-.2m57 0 .1.2-.2-.2m26 0 .2.2-.2-.2m47.6.1v.2-.2m21 0 .1.1zM53.1 142.5l.1.1-.1-.1m6 0 .1.1-.1-.1m57 0 .2.1-.2-.1m27.2 0 .1.1-.2-.1m29 0 .2.1-.2-.1m1.2 0 .2.1z" class="p_B"/><path d="M83.4 142.7v2h.1z" class="p_C"/><path d="m116 142.7.1.1-.1-.2m25.8 0 .1.2-.1-.2m1.1 0 .2.2-.1-.2m28.9 0 .2.2z" class="p_B"/><path d="m248.8 142.7.2.1-.2-.2m6.8 0 .1.2z" class="p_C"/><path d="M53 142.8v2.6h.1z" class="p_B"/><path d="M83.4 142.8c-3 .9-6 3.3-8.7 4.9-.5.3-2.4 1.7-1.3 2.4.8.5 2.4-.9 3.1-1.3l4.6-2.7c.7-.3 1.7-.7 2.1-1.3.4-.5.2-1.4.2-2z" class="p_D"/><path d="m58.4 143 .1.1-.1-.2m56.5 0 .2.2-.2-.2m56.5 0 .2.2-.2-.2m1.2 0 .2.2zM58 143.1l.2.1-.1-.1m84.1 0 .2.1-.2-.1m29 0 .1.1-.2-.1m1.3 0 .1.1zM140.7 143.3l.2.1-.2-.2m1.2 0 .2.2-.2-.2m29 0 .1.2-.1-.2m39.4 0 .1.2zM56.3 144.2l.1.1-.1-.2m57.7 0 .1.2-.1-.2m.8 0 .1.2-.2-.2m25.7 0 .1.2-.1-.2m29 0 .1.2-.1-.2m1.1 0 .2.2zM56 144.3l.1.1-.2-.1m83 0 .1.1-.1-.1m1.2 0 .1.1-.1-.1m29 0 .1.1-.1-.1m40.3 0v.6h.2z" class="p_B"/><use xlink:href="#p_X" x="-51.5" y="46.1" class="p_B"/><path d="m55.5 144.6.1.1-.1-.1m58.2 0 .2.1-.2-.1m.7 0 .2.1-.2-.1m23.9 0 .1.1-.1-.1m31.5 0 .1.1-.1-.1m-114.6.1.2.2-.2-.2m28.2 0v5.7h.2c0-1.6.4-4.1-.2-5.7m56 0 .1.2-.1-.2m28.9 0 .2.2-.2-.2m1.2 0 .1.2z" class="p_B"/><path d="m206.1 145.3 1.6.5c-.2-1-1-1.2-1.6-.5z" class="p_F"/><path d="m54.9 144.9.2.2-.2-.2m83 0 .1.2-.1-.2m1.1 0 .2.2-.1-.2m28.9 0 .1.2zM114.2 145l.1.2-.1-.1m23.4 0 .1.1-.1-.1m31.5 0 .1.1-.1-.1m20.7 0v.4h.1z" class="p_B"/><path d="m200.3 146.1 1.4-.5c-.4-.8-1.5-.5-1.4.5z" class="p_F"/><path d="m54.4 145.2.2.2-.2-.2m113.1 0 .2.2-.2-.2m1.2 0 .2.2-.2-.2m-114.6.2.2.1-.2-.1m59.1 0 .2.1-.2-.1m.8 0 .1.1-.1-.1m24.3 0 .1.1-.1-.1m29 0 .1.1-.2-.1m1.2 0 .2.1zM53.1 145.5l.1.1-.1-.1m83.7 0 .1.1-.1-.1m1.2 0 .1.1-.1-.1m29 0 .1.1-.2-.1m42.4 0 .1.1-.2-.1m-155.7.2h.1-.1m59.6 0 .2.1-.2-.2m23.4 0 .1.2-.1-.2m31.5 0 .1.2z" class="p_B"/><path d="M240.2 177.9c0-7.9 2.5-16.1 6-23.1a41.7 41.7 0 0 1 3.7-6c.7-1 2-2 2.1-3.1-1.8.5-3.4 3.7-4.3 5.2a53.7 53.7 0 0 0-8 24.9c0 .8-.4 1.7.4 2.1zM59.2 146c-.5.1-1.1.6-1.6.8-1.2.7-3.4 1.6-4.2 2.8-.3.5-.7 3.2.2 3.3.5 0 1.2-.4 1.6-.7 1.3-.7 3.7-1.6 4.4-3 .3-.5.6-3.1-.4-3.1z" class="p_E"/><path d="m59.6 146 .1.1-.1-.2m76.5 0 .1.2-.1-.2m1.1 0 .2.2-.2-.2m29 0 .2.2-.2-.2m42.9 0 .1.2-.1-.2m-149.4.2.2.1-.2-.1m53.9 0 .1.1-.1-.1m22.2 0 .1.1-.1-.1m1.2 0 .1.1-.1-.1m53 .1v.1-.1m-131.5 0 .1.2-.1-.1m77 0 .1.1-.1-.1m31.5 0 .1.1-.1-.1m42 0 .1.1zM58.2 146.4l.2.2-.2-.2m55.2 0 .1.2-.1-.2m23.1 0 .1.2-.1-.2m29 0 .1.2-.2-.2m1.2 0 .2.2zM113.3 146.7l.1.2-.2-.2m21.5 0 .2.2-.2-.2m1.2 0 .2.2-.2-.2m72.7 0 .2.2-.2-.2m-151.2.2.2.1-.2-.1m77 0 .1.1-.1-.1m30.3 0 .2.1-.2-.1m1.2 0 .1.1-.1-.1m24.1 0 .2.1zM56.9 147.2l.1.1-.1-.2m55.5 0 .1.2-.1-.2m21.5 0 .2.2-.2-.2m1.2 0 .2.2-.2-.2m29 0 .2.2z" class="p_B"/><path d="m250 147.3.2.1-.1-.1m8 .1v.1z" class="p_C"/><path d="M201.2 147.6c-.8.2-.4 1.5.4 1.2.7-.2.4-1.5-.4-1.2m5 0c-.8.2-.6 1.4.2 1.2.8-.1.6-1.5-.3-1.2z" class="p_F"/><path d="m55.4 148 .1.2-.1-.1m78.2 0 .2.1-.2-.1m29 0 .2.1-.2-.1m1.2 0 .1.1z" class="p_B"/><path d="m242.6 148 .1.2-.1-.1m15.3 0 .1.1z" class="p_C"/><path d="m55 148.2.2.2-.1-.2m56.8 0 .2.2-.2-.2m20.2 0 .2.2-.2-.2m1.3 0 .1.2-.1-.2m28.9 0 .1.2-.1-.2m28.2 0 .1.2-.1-.2m-135.6.2.2.1-.2-.1m57.6 0 .2.1-.2-.1m19.4 0 .1.1-.1-.1m1.2 0 .1.1z" class="p_B"/><path d="m249.2 148.5.1.1-.2-.1m8.6 0 .2.1z" class="p_C"/><path d="m54.3 148.7.1.1-.1-.2m57.5 0 .1.2-.2-.2m20.9 0 .2.2-.2-.2m29 0 .1.2-.1-.2m1.2 0 .1.2z" class="p_B"/><path d="m248.8 149 .2.1-.2-.2m.8 0 .1.2-.1-.2m8 0 .1.2z" class="p_C"/><path d="m59.6 149.3.1.1-.1-.2m52.6 0 .2.2-.2-.2m19.4 0 .1.2-.1-.2m28.9 0 .1.2-.1-.2m1.2 0 .2.2-.2-.2m29.2 0 .2.2-.2-.2m-60.8.2.1.1-.1-.1m1.2 0 .1.1-.1-.1m28.9 0 .2.1zM53.3 149.6l.1.1-.1-.1m58.1 0 .2.1-.2-.1m18.3 0 .2.1-.2-.1m31.6 0 .1.1-.2-.1m29.9 0 .2.1zM59.3 149.7l.1.2-.1-.2m52.8 0 .1.2-.1-.2m47.7 0 .1.2-.2-.2m1.2 0 .2.2-.2-.2m-107.8.2.1.1-.1-.1m6 0 .1.1z" class="p_B"/><path d="M124.3 150c-2 .4-3.4 2.7-3.7 4.6-.2 1.5.5 3 2.3 2.7 2-.4 3.3-3 3.5-4.9.2-1.3-.5-2.8-2-2.5z" class="p_D"/><path d="m130.5 149.8.1.2-.1-.2m29 0 .1.2-.2-.2m1.2 0 .2.2-.2-.2m30.7 0 .1.2zM53 150.2v2.5h.1l-.2-2.5m5.7 0 .2.1-.2-.2m52.7 0 .1.2zM128.7 150.2l.2.1-.2-.2m31.5 0 .2.2z" class="p_B"/><path d="m241 150.3.2.1-.1-.1m6.8 0 .2.1z" class="p_C"/><use xlink:href="#p_Y" x="-60" y="51" class="p_B"/><path d="M153.4 150.5c-2 .5-3.3 3-3.5 4.9-.2 1.3.5 2.8 2 2.5 2.1-.4 3.4-2.8 3.7-4.8.3-1.4-.4-3-2.2-2.6z" class="p_D"/><use xlink:href="#p_W" x="-34.5" y="53.7" class="p_B"/><path d="M191.7 150.9c0 .7-.4 3.5.3 3.9.6.2 1.4-.5 1.8-.7-.4-1-1.2-2.6-2.1-3.2zM126.3 151.2h.1z" class="p_C"/><path d="m127.2 151 .2.2-.2-.1m1.2 0 .2.1-.2-.1m29 0 .1.1z" class="p_B"/><path d="m240.6 151 .1.2-.1-.1m16 0 .2.1z" class="p_C"/><path d="m82 151.2.2.2-.1-.2m44.8 0 .2.2-.2-.2m31.5 0 .2.2zM56.6 151.3l.1.2-.1-.2m25.2 0 .1.2-.2-.2m75.2 0 .1.2-.1-.2m1.2 0 .1.2z" class="p_B"/><path d="M155.6 151.8zM247.8 151.7l.1.1-.1-.2m8.6 0 .1.2z" class="p_C"/><path d="m81 151.8.1.1-.1-.1m30 0v.6h.1l-.1-.6m46.4 0 .1.1zM55.5 152l.1.1-.1-.2m56.1 0v.5h.2l-.2-.5m44.3 0 .1.2-.1-.2m1.2 0 .1.2zM54.8 152.4l.1.2-.1-.2m25.5 0 .1.2-.2-.2m76.1 0 .1.2zM54.4 152.6l.2.1-.2-.1m25.7 0 .1.1-.1-.1m3.1 0c.7 2.9.2 6.5.2 9.5h.1v-7l-.3-2.5m72.8 0 .1.1zM53.1 152.8l.1.2-.1-.2m.8 0 .1.2-.1-.2m26 0 .2.2-.2-.2m-26.6.2v.1h.4l-.4-.1m29.2 0 .1.1z" class="p_B"/><path d="M155.6 153.3z" class="p_C"/><path d="M59.1 153.4c-.6.1-1.2.6-1.7.9-1.1.7-3.2 1.4-4 2.6-.4.6-.7 3.4.3 3.4.6 0 1.2-.5 1.7-.8 1.2-.7 3.5-1.6 4.2-2.9.3-.6.7-3.4-.5-3.2z" class="p_E"/><path d="m120.9 153.3.2.1-.2-.1m5.3 0 .1.1-.1-.1m120 0 .1.1-.2-.1m9.4 0 .1.1z" class="p_C"/><path d="m58.2 153.8.2.1-.2-.2m21.7.2z" class="p_B"/><path d="m120.8 153.8.1.1-.2-.2m5.3 0 .1.2-.1-.2m113.3 0 .1.2-.2-.2m7.4 0 .2.2zM150.2 153.9l.1.2-.2-.2m5.3 0 .2.2-.2-.2m90.5 0 .1.2z" class="p_C"/><path d="m80 154 .1.2-.2-.1m.8 0 .2.1z" class="p_B"/><path d="m239.1 154 .1.2-.1-.1m7.3 0 .2.1zM155.1 154.7l.1.1-.1-.2m91 0 .2.2zM149.9 154.9v.1-.1m88.9-.1.2.1-.2-.1m6.6 0 .2.1zM120.5 155l.1.1-.1-.2m4.9 0 .2.2-.2-.2m29.5 0 .2.2-.2-.2m91.1 0 .1.2z" class="p_C"/><path d="M114.2 159.3c1.6-.6 3.2-1.8 4.8-2.7.7-.4 1.5-.6 1.6-1.5-1.7.5-3.4 1.8-5 2.7-.6.4-1.3.7-1.4 1.5z" class="p_F"/><path d="m245.3 155.1.1.1-.2-.1m9.2 0 .1.1-.1-.1m-99.6.1.1.2-.1-.2m91 0 .2.2z" class="p_C"/><path d="m55 155.6.2.1-.1-.1m64.3 0 .2.1-.2-.1m30.2 0 .1.1z" class="p_B"/><path d="M149.7 155.6c-5.4 3.5-11.2 6.5-16.8 9.7-2 1.1-4.7 3-7 1.5-3-2-2.2-6.8-2.2-9.9-.7.8-.4 2.4-.4 3.5 0 3 0 6.8 3.8 7.5 2.2.4 4.3-1 6.1-2l11.6-6.7 3.8-2.3c.6-.3 1.4-.6 1.1-1.3z" class="p_F"/><path d="m154.7 155.6.1.1-.2-.1m83.9 0 .2.1-.2-.1m7.2 0 .2.1z" class="p_C"/><path d="m54 156.2.1.1-.1-.2m64.4 0 .1.2-.1-.2m1.2 0 .1.2-.1-.2m28.9 0 .1.2z" class="p_B"/><path d="m154.2 156.2.2.1-.2-.2m91.2 0 .2.2z" class="p_C"/><use xlink:href="#p_X" x="-42" y="58.1" class="p_B"/><path d="m149.8 156.6.2.1-.2-.1m103.7 0 .1.1-.1-.1m4.6 0 .1.1h-.1m2.1 0h.1z" class="p_C"/><use xlink:href="#p_V" x="-85.5" y="65.7" class="p_B"/><path d="m120.9 156.8.2.1-.2-.2m2.9 0 .1.2-.1-.2m76.3 0c0 2 2.3 5.5 1 7.4-.7.9-2.2-.3-2.8-.7a12.3 12.3 0 0 1-5-6.2l-2.8.3c4.5 5.2-1.4 12-3 17.1-.2.8 0 1.7 0 2.5-.1 1-.5 2.7-.2 3.6.4 1.2 3.1 2.3 4.1 3 2 1.2 4.3 3 6.6 3.4 2.4.6 6-.8 7.6-2.6 2.6-3-1.7-4-1.4-6.9 0-1.2 0-2.7.3-3.9.6-1.5 2-2.5 2.3-4.2.8-3.4-.4-6.8-2-9.7-.5-1-1.2-2.4-2-2.9-.7-.4-2-.1-2.7-.1z" class="p_C"/><path d="M202.8 156.8c1.6 3 4.1 5.8 4.2 9.6h.1c1-3.2 2-6.8-1.5-8.8-.9-.5-1.8-.6-2.8-.8z" class="p_F"/><path d="M203 156.8v.1h.4z" class="p_B"/><path d="m238 156.8.2.1-.1-.2m7 0 .1.2-.1-.2m12.3 0 .2.2-.2-.2m3.3 0 .2.2z" class="p_C"/><path d="M112 157c-1.8.4-3.3 2.7-3.5 4.5-.2 1.6.3 3.3 2.2 2.8 1.9-.4 3.3-2.9 3.5-4.7.1-1.4-.4-3-2.2-2.6z" class="p_D"/><path d="M123.8 156.9v6.2h.1c0-1.8.5-4.6-.2-6.2m24.8 0 .1.2zM204 157zM59.3 157l.1.2-.1-.1m58.8 0 .1.1zM147 157l.1.2-.1-.1m1.2 0 .2.1z" class="p_B"/><path d="m244.3 157 .2.2-.2-.1m8.9 0 .2.1-.2-.1m3.2 0 .1.1-.1-.1m5 0 .2.1z" class="p_C"/><path d="M123.2 157.2v6h.1c0-1.7.5-4.4-.1-6m23.5 0 .2.2z" class="p_B"/><path d="M122 157.3v.2h.4z" class="p_C"/><path d="m147.8 157.3.1.2-.2-.2m57.5 0 .2.2zM53 157.5v2.6h.1zM146.3 157.5l.1.1-.2-.1m1.2 0 .2.1zM190 157.5v.1h.5zM117 157.7l.1.1-.1-.2m29 0 .1.2-.2-.2m1.2 0 .2.2zM189.4 157.7h.1z" class="p_B"/><path d="M189.6 157.7c-5.7 1-6.9 6.5-8.4 11.2-.5 1.3-1.7 3.4-1.5 4.8.2 2.2 4.5 3.3 6.3 3 1.3-.3 1.7-2.5 2.2-3.6 1.4-3.6 3.6-6.7 3.6-10.8 0-1.5.3-5-2.2-4.6z" class="p_F"/><use xlink:href="#p_I" x="-61.8" y="86.2" class="p_C"/><path d="m150.8 157.8.1.1-.2-.1m1.4 0 .2.1zM244.7 157.8l.1.1-.2-.1m8.2 0 .1.1-.1-.1m1.9 0 .2.1-.2-.1m8 0 .1.1z" class="p_C"/><path d="m115.2 158 .2.1-.2-.2m31.5 0 .2.2-.2-.2m41.6 0 .1.2z" class="p_B"/><path d="m110 158.3.1.1-.1-.2m4.2.2z" class="p_C"/><path d="m114.8 158.3.1.1-.2-.2m1.2 0 .2.2-.2-.2m29 0 .1.2-.1-.2m1.2 0 .1.2-.1-.2m41.4 0 .1.2-.1-.2m19 0 .2.2zM56.6 158.7l.1.2-.1-.2m58.6 0 .2.2-.2-.2m29 0 .1.2-.2-.2m1.3 0 .1.2-.1-.2m41.2 0 .1.2zM56 159l.1.1-.2-.1m58.7 0 .1.1-.1-.1m30 .1.1.2-.1-.2m41.3 0 .1.2z" class="p_B"/><path d="M114.2 159.6z" class="p_C"/><path d="m194.4 159.4.2.2-.2-.2m6.3 0 .2.2-.2-.2m44.9 22a37.8 37.8 0 0 1 12.1-19.3c.9-.8 2.2-1.5 2.6-2.7-1.6.4-2.8 2-4 3-3.9 3.4-7 8-9.2 12.7-.6 1.2-2.7 5-1.5 6.3z" class="p_E"/><use xlink:href="#p_V" x="-60.5" y="68.7" class="p_B"/><use xlink:href="#p_X" x="-48" y="61.5" class="p_B"/><path d="m237.2 159.9.1.2-.2-.2m6 0 .2.2-.2-.2m17 0 .2.2-.2-.2m4.2 0 .2.2z" class="p_C"/><path d="m54.1 160 .2.2-.2-.1m87.7 0 .1.1z" class="p_B"/><path d="m208.7 160 .1.2-.2-.1m35.2 0 .1.1-.1-.1m15.1 0 .2.1z" class="p_C"/><path d="M53.5 160.4h.1z" class="p_B"/><path d="M191.8 160.5v2h.2z" class="p_D"/><path d="m237 160.6.1.1v-.1m6.5-.1.1.1-.1-.1m15.8 0 .1.1z" class="p_C"/><path d="M59.1 160.8c-.6 0-1.2.6-1.7.8-1.1.7-3.2 1.5-4 2.7-.4.5-.7 3.4.3 3.3.6 0 1.2-.5 1.7-.8 1.2-.7 3.4-1.4 4.1-2.7.4-.6.8-3.5-.4-3.3z" class="p_E"/><path d="m58.5 161 .1.1-.1-.2m81.8 0 .1.2-.2-.2m1.2 0 .2.2zM140 161.1l.1.1-.2-.1m44.2 0 .1.1z" class="p_B"/><path d="m211 161.3.2.1-.1-.2m32.2 0 .1.2-.1-.2m15.1 0 .2.2-.2-.2m-144.9.2.2.1z" class="p_C"/><path d="M108.3 162c-1.4 1-3 1.8-4.5 2.7-.7.4-1.5.6-1.7 1.5 1.8-.5 3.5-1.8 5-2.7.6-.3 1.5-.7 1.2-1.5z" class="p_F"/><use xlink:href="#p_U" x="-67.5" y="72.8" class="p_B"/><path d="m212.4 162 .2.1-.2-.1m44.3 0 .1.1-.2-.1m1 0 .1.1z" class="p_C"/><path d="m56.4 162.2.2.1-.2-.2m26.9 0 .1.2-.2-.2m55 0 .1.2-.2-.2m1.3 0 .1.2-.1-.2m44 0 .2.2z" class="p_B"/><path d="m236.7 162.2.2.1-.2-.2m6.3 0 .1.2-.1-.2m13.5 0 .1.2-.1-.2m.9 0 .2.2zM213.2 162.4l.1.2-.2-.2m44 0 .2.2z" class="p_C"/><path d="m55.4 162.8.1.1-.1-.2m26.8 0 .2.2-.2-.2m24.7 0 .2.2-.2-.2m1.2 0 .2.2-.2-.2m29 0 .1.2-.1-.2m-82 .2.1.1-.1-.1m51.5 0 .2.1-.2-.1m1.3 0 .1.1-.1-.1m75.2 0 .2.1zM106.3 163l.2.2-.2-.1m31.5 0 .2.1z" class="p_B"/><path d="m214.2 163 .2.2-.2-.1m27.9 0 .1.1-.1-.1m.6 0 .2.1zM236.6 163.3v.1-.1m28 0 .1.1zM169.8 163.3c-2.3.2-5 2.6-7 3.8-.8.4-2 .8-2.4 1.5-.4.6-.8 4-.1 4.5.7.4 3-1.4 3.6-1.8 1.6-.9 4.9-2 5.7-3.6.6-1 .2-3.1.2-4.4zM215 163.5l.1.1-.2-.1m27 0 .2.1z" class="p_C"/><path d="m53.9 163.7.1.1-.1-.2m26.8 0 .2.2-.2-.2m54.9 0 .1.2-.1-.2m1.2 0 .1.2z" class="p_B"/><path d="M191.8 163.8z" class="p_D"/><path d="M124 163.9v.1-.1m11.3-.1.1.1-.1-.1m1.2 0 .1.1-.1-.1m46.4 0 .1.1-.1-.1m-123.3.1.1.2-.1-.2m20.5 0 .2.2z" class="p_B"/><path d="M99.8 164c-2 .6-3.3 3-3.6 4.9-.2 1.5.7 3 2.4 2.5 2-.6 3.2-3 3.5-4.9.2-1.5-.7-3-2.3-2.4z" class="p_D"/><path d="m104.8 164 .2.1-.2-.2m1.2 0 .2.2-.2-.2m17.3.2h.1m11.6-.2.1.2z" class="p_B"/><path d="m241.8 164 .1.1-.1-.2m22.6 0 .2.2z" class="p_C"/><path d="M83.4 164.1v3.8h.1zM136 164.1l.2.1-.1-.1m46.6 0 .2.1zM53.3 164.3l.1.1-.1-.2m26.3 0 .2.2-.2-.2m3.5 0 .1.2z" class="p_B"/><path d="m99 164.3.1.1-.1-.2m11.7 0 .2.2z" class="p_C"/><use xlink:href="#p_V" x="-68.3" y="73.2" class="p_B"/><path d="m216.3 164.3.1.1-.1-.2m38.1 0 .2.2z" class="p_C"/><path d="m59.3 164.4.1.2-.1-.2m20 0 .2.2-.1-.2m24.7 0 .2.2-.2-.2m1.2 0 .1.2z" class="p_B"/><path d="M109.8 164.4v.2h.4z" class="p_C"/><path d="M124.1 164.5v.1-.1m10.1-.1.2.1-.2-.1m1.2 0 .2.1z" class="p_B"/><path d="m200.3 164.4.1.2-.2-.2m.5 0 .2.2z" class="p_E"/><path d="M236.4 164.6v.4h.2l-.2-.4m5.3 0 .1.1-.2-.1m.7 0 .1.1-.1-.1m11.8 0 .2.1zM217 164.7l.2.2-.1-.2m36.8 0 .2.2z" class="p_C"/><path d="M53 164.8v2.6h.1l-.2-2.6m25.7 0 .1.2-.1-.2m3.5 0 .1.2zM58.4 165l.1.1-.1-.1m19.9 0 .1.1-.1-.1m24.8 0 .1.1-.1-.1m1.2 0 .1.1-.2-.1m19.4 0 .2.1-.2-.1m9.6 0 .2.1-.2-.1m49.2 0 .2.1zM58 165.2l.2.1-.1-.2m23.5 0 .2.2-.2-.2m21.2 0 .1.2-.2-.2m1.2 0 .2.2z" class="p_B"/><path d="m217.8 165.2.1.1-.1-.2m24.3 0 .1.2-.1-.2m12.3 0 .1.2z" class="p_C"/><path d="M206.9 165.4v.1z" class="p_D"/><path d="m103.5 165.4.1.2-.1-.2m20.3 0 .1.2-.2-.2m8.7 0 .2.2-.2-.2m1.2 0 .2.2-.2-.2m48.7 0 .1.2zM57 165.8l.1.1-.1-.2m23.6 0 .1.2-.1-.2m44 0 .2.2-.2-.2m8.6 0 .2.2-.2-.2m48.9 0 .1.2z" class="p_B"/><path d="m218.8 165.8.2.1-.2-.2m23.1 0 .2.2-.2-.2m11.1 0 .2.2z" class="p_C"/><path d="m76.8 165.9.1.2-.1-.2m3.5 0 .1.2-.2-.2m51.5 0 .2.2-.2-.2m1.2 0 .2.2z" class="p_B"/><path d="m219.2 165.9.1.2-.2-.2m33.8 0 .2.2z" class="p_C"/><path d="m56.6 166 .1.2-.1-.1m19.9 0 .1.1zM102.5 166l.1.2-.1-.1m28.9 0 .2.1-.2-.1m1.2 0 .2.1zM56 166.3l.1.2-.2-.2m23.6 0 .1.2zM75.8 166.5l.1.1-.2-.1m3.5 0 .2.1-.2-.1m52.7 0 .1.1z" class="p_B"/><path d="m220.2 166.5.2.1-.2-.1m16 0v.6h.2l-.1-.6m16.9 0 .2.1z" class="p_C"/><path d="m55.5 166.7.1.1-.1-.2m20 0 .1.2-.2-.2m50.2 0 .1.2-.1-.2m56.2 0 .1.2z" class="p_B"/><path d="m207.2 166.7-.2 2.5c1.6-.6 1.6-1.8.2-2.5z" class="p_F"/><path d="m252.3 166.7.1.1-.1-.2m10.8 0 .1.2zM220.7 166.8l.1.1-.2-.1m20.5 0 .1.1-.1-.1m.6.1v.1-.1m10.4-.1.2.1z" class="p_C"/><path d="m54.9 167 .2.1-.2-.2m20.1 0 .1.2-.1-.2m3.4 0 .2.2-.2-.2m47.6 0 .1.2-.1-.2m5.1.1.1.1z" class="p_B"/><path d="m222 167.6.1.1-.1-.1m19.5 0 .1.1-.1-.1m10 0 .2.1-.1-.1m10.8 0 .1.1z" class="p_C"/><path d="M53.5 167.8h.1-.1m20.1-.1.2.2zM77 167.8l.1.2-.2-.2m6.3 0 .2.2-.2-.2m43.8.1h.1-.1m1.3 0v.1h.4z" class="p_B"/><path d="M59.2 168.1c-.5 0-1.1.5-1.6.8-1.2.7-3.6 1.5-4.3 2.8-.3.6-.6 3.2.3 3.3.5 0 1.2-.4 1.6-.7 1.3-.8 3.7-1.6 4.4-3 .3-.6.7-3.2-.4-3.2z" class="p_E"/><path d="m222.8 168 .1.1-.2-.1m29.3 0 .1.1-.1-.1m9.9 0 .2.1z" class="p_C"/><path d="m59.7 168.2.2.1-.2-.2m13.2 0 .1.2-.1-.2m3.5 0 .1.2-.1-.2m6.4 0 .1.2z" class="p_B"/><path d="m223 168.2.2.1-.1-.2m17.6 0 .2.2-.2-.2m10.4.1.1.2-.1-.2m10.6 0 .2.2z" class="p_C"/><path d="m71.9 168.8.1.1-.1-.2m9.8 0 .2.2z" class="p_B"/><path d="M96.2 168.8v.1m144.4 0h.1m10-.2.1.2zM241.3 169v.1z" class="p_C"/><path d="m57.1 169 .2.2-.2-.1m17.8 0 .1.1-.1-.1m-18 .1.1.2-.1-.2m14.2 0 .1.2-.1-.2m3.5 0 .1.2-.2-.2m6.5 0 .1.2z" class="p_B"/><path d="M236.1 169.3v1.1h.1l-.1-1m24.4 0 .2.1zM240.5 169.6v.1-.1m19.9-.1.2.1z" class="p_C"/><path d="m56.1 169.7.1.1-.1-.2m17.7 0 .1.2z" class="p_B"/><path d="M96.1 169.7v.4h.2l-.2-.4m129.5 0 .1.1-.1-.2m24.5 0 .1.2-.2-.2m.8 0 .1.2-.1-.2m9.4 0 .2.2z" class="p_C"/><path d="m70 169.8.2.1-.1-.1m3.4 0 .1.1-.1-.1m6.4 0 .2.1z" class="p_B"/><path d="m225.9 169.8.2.1-.2-.1m24.8 0 .1.1-.2-.1m9.5 0 .2.1z" class="p_C"/><path d="m55.6 170 .2.1-.2-.2m14.3 0 .1.2-.1-.2m9.7 0 .2.2-.2-.2m3.8 0v3.8h.1z" class="p_B"/><path d="m249.8 170.1.1.1-.2-.1m10.1 0 .1.1z" class="p_C"/><path d="m55 170.3.2.1-.1-.2m17.7 0 .1.2-.2-.2m6.5 0 .2.2-.2-.2m3.4 0 .2.2-.2-.2m98 0 .1.2z" class="p_B"/><path d="m96.3 170.4.1.2-.1-.2m130.7 0 .1.2-.1-.2m13.3.1.1.1v-.1m.6 0v.1-.1m18.5-.1.2.2zM99.8 170.6l.1.1-.2-.1m149.8 0 .1.1z" class="p_C"/><path d="m54 170.8.1.2-.1-.2m5.8.1v.2-.2m11.9 0 .2.1-.2-.2m6.4 0 .2.2-.2-.2m3.5 0 .1.2zM71.3 171.2l.1.1-.2-.2m6.4 0 .1.2-.1-.2m3.5 0 .2.2z" class="p_B"/><path d="m228.8 171.4.1.2-.2-.2m20.2 0 .1.2-.1-.2m.7 0 .2.2z" class="p_C"/><path d="m53.3 171.6.1.1-.1-.1m16.1 0 .2.1-.2-.1m1.1 0 .1.1-.1-.1m6.3 0 .1.1-.1-.1m103.4 0 .1.1-.1-.1m-121 .1.2.2-.1-.2m10.3 0 .2.2-.2-.2m.6 0 .2.2-.2-.2m6.3 0 .2.2-.2-.2m3.6 0 .2.2zM76 172l.2.2-.1-.1m3.4 0 .1.1-.1-.1m100.5 0 .1.1zM53 172.2v2.6h.1l-.2-2.6m5.7 0 .2.2-.2-.2m17.1 0 .2.2z" class="p_B"/><path d="M240 172.2v.4h.1l-.1-.4m.6 0v.4h.2l-.2-.4m8.5 0 .2.2z" class="p_C"/><path d="m58.4 172.3.1.2-.1-.2m20.7 0 .1.2-.1-.2m-21 .2.1.1-.1-.1m17.2 0 .1.1-.1-.1m3.5 0 .1.1-.2-.1m101.1 0 .2.1zM57.3 173l.1.1-.1-.2m20.7 0 .1.2-.1-.2m101.7 0 .2.2zM57 173.1l.1.1-.1-.1m17.3 0 .1.1-.2-.1m3.5 0 .2.1z" class="p_B"/><path d="M239.8 173.3v.4h.2l-.2-.4m.6 0v.4h.2l-.2-.4m8.2 0 .1.1z" class="p_C"/><path d="m56 173.7.1.2-.2-.2m17.3 0 .2.2-.2-.2m3.4 0 .2.2-.2-.2m6.5 0 .1.2zM204.4 174c0 1.5-.7 3.7-.2 5.1.8 2 3.4 3.5 5 4.7.9.5 2.2 1.8 3.2 1.8 1.5 0 3.4-1.8 4.8-2.5-1-1.3-2.8-1-4-1.8-3-2.1-5.5-5.6-8.8-7.3m-149.2.1.2.2-.2-.2m17.2 0 .2.2-.2-.2m3.5 0 .2.2-.2-.2m6.5 0 .1.2-.1-.2m97.3 0c-.7 2.2-2.5 5.8-1.8 8 .5 1.7 3 2.5 4.5 3.2 4 1.8 8.7 3 12.3 5.4 1 .6 1.7 1.5 2.7 2.1.7.5 1.7.5 2.4 1 .8.5 1.4 1.5 2.3 2.1.7.6 2.2 1.2 3 .5.6-.5.3-1.4.1-2-.5-1.4-1.8-3-2-4.4l-9.2-4.9-9.4-5.9 1.1-2.5c-2.6 0-4-1.2-6-2.6z" class="p_B"/><path d="m233.4 174.2.2.1-.2-.2m14.7 0 .2.2z" class="p_C"/><path d="m54.8 174.4.1.2-.1-.2m17 0 .2.2-.1-.2m3.5 0 .2.2-.1-.2m6.3 0 .1.2z" class="p_B"/><path d="M239.7 174.4v.7h.2l-.2-.7m.6 0v.7h.1l-.1-.7m7.6 0 .2.2z" class="p_C"/><path d="M203.1 190.2c.7 1.7 2 3.3 2.3 5.1.2 1.3-1.4 1.6-2.3 1.2-1.5-.6-2.2-2.5-3.6-3-1.7-.6-3 .5-4.5 1.4-.7.3-1.6.7-1.2 1.6.6 1.6 4.1 2.8 5.5 3.6l5 2.9c.7.4 1.4 1 2.2 1 1.5 0 3.2-1.5 4.4-2.1l10.6-6.2 6-3.4c.8-.5 2.1-1 2.6-1.8.5-1 .5-2.4.7-3.4l1.4-8.6c.1-.9 1-3.3-.2-3.7-.6-.3-1.8.7-2.4 1l-6.3 3.7-7.8 4.4c-.8.6-1.8 1.4-2.8 1.6-.6.2-1-.1-1.7.1-2.7 1.1-5.4 3-7.9 4.6z" class="p_E"/><path d="m232 174.6.2.1-.1-.1m15.1 0 .2.1z" class="p_C"/><path d="m54.1 174.8.2.1-.2-.2m17.3 0 .1.2-.1-.2m3.5 0 .1.2-.1-.2m6.4 0 .1.2z" class="p_B"/><path d="m232.2 174.8.2.1-.2-.2m2.3 0 .1.2-.2-.2m13.4 0 .1.2zM231.2 174.9l.1.2-.2-.2m16 0 .1.2z" class="p_C"/><path d="M53.3 175v.2h.4l-.5-.1m21.2 0 .1.1-.1-.1m6.3 0 .2.1z" class="p_B"/><path d="m230.8 175 .2.2-.2-.1m16.8 0 .2.1z" class="p_C"/><use xlink:href="#p_T" x="-75" y="88.5" class="p_B"/><path d="m187.2 175.2-1.5 1.7-1 2.4c2.6 1 2.8-2.4 2.8-4.1z" class="p_D"/><path d="M59.1 175.5c-.6 0-1.2.6-1.7.8-1.1.7-3.2 1.5-4 2.7-.4.5-.7 3.4.3 3.3.6 0 1.2-.5 1.7-.8 1.2-.7 3.5-1.5 4.2-2.8.3-.6.7-3.4-.5-3.2z" class="p_E"/><path d="m59.7 175.5.2.1-.2-.1m14 0 .1.1-.2-.1m6.3 0 .2.1zM58.5 175.7l.1.1-.1-.2m11.4 0 .1.2-.1-.2m3.5 0 .1.2-.1-.2m9.8 0 .2 5.5h.1c0-1.2.6-4.7-.3-5.5z" class="p_B"/><path d="m229.8 175.7.1.1-.1-.2m17.6 0 .1.2-.1-.2m6.8 0 .2.2zM239.6 176v.7h.1l-.1-.8m.5 0v.8h.2z" class="p_C"/><path d="m57.4 176.3.2.1-.2-.2m14.9 0 .1.2-.1-.2m9.9 0 .2.2zM56.4 176.8l.2.2-.2-.2m14.9 0 .1.2-.2-.2m10 0 .1.2-.2-.2m-25 .2.1.1-.1-.1m21.3 0 .1.1-.1-.1m3.5 0 .1.1z" class="p_B"/><path d="m246.2 177 .1.1-.2-.1m7 0 .1.1z" class="p_C"/><path d="m55.8 177.2.1.1-.1-.2m21.3 0 .2.2zM55 177.6l.2.1-.1-.1m21.3 0 .1.1z" class="p_B"/><path d="M82.8 228.4v-.3l1.8-.8a10 10 0 0 0-4.3-3.4c1.2-1.5 3.1-1.3 3.1-3.5-1.3.3-3.5-1.1-4.4-2.2l4.4-2.2v-1.6l-2.4 1-3.8-1.8c.7-.9 3.2-2.6 4.4-2.5.6 0 1.2.5 1.8.7 0-.6 0-1-.6-1.4v-.4c.6-.3.6-.8.6-1.5 0-2-1.4-2.7-3.1-3.3l3-2.2.1-1.9c-3.3 1.6-6.4 3.7-9.6 5.5l-13.8 8-5.7 3.3c-.6.4-1.7.8-2 1.6-.3.8 1 1.3 1.6 1.7l5.8 3.3 18.9 10.8c2.1 1.2 5.1 4 7.7 3.4 1.3-.2 2.4-1.1 3.6-1.8l5.8-3.3 20.4-11.8 43.7-25.2c6.9-4 14.1-7.7 20.8-12.1l-2-1-1.5.5-3.5-1.9v-.3c2-.9 4.5-2 5-4.2l-7.6 4.3-15.6 9-45.6 26.2-17 9.8-4.3 2.5-2 1z" class="p_F"/><use xlink:href="#p_H" x="-96.7" y="106.5" class="p_B"/><path d="m226.2 177.8.2.1-.2-.2m13.5 0 .2.2z" class="p_C"/><path d="m54.3 178 .1.2-.1-.1m21.3 0 .2.1-.2-.1m3.5 0 .1.1z" class="p_B"/><path d="m177.4 178 .2.2-.2-.1m54.9 0v.2-.1m19.8-.1.2.1zM177.2 178.2l.1.2-.2-.2m68.6 0 .2.2z" class="p_C"/><path d="m187.2 178.3-2 1.2v.2l2 1z" class="p_F"/><path d="m225.2 178.3.1.2-.2-.2m21.2 0 .2.2z" class="p_C"/><use xlink:href="#p_P" x="-76.2" y="94.9" class="p_B"/><path d="m59.6 178.7.1.1-.1-.2m15 0 .1.2-.1-.2m3.4 0 .1.2z" class="p_B"/><path d="M187.3 178.8z" class="p_D"/><path d="m246.2 178.8.1.1-.2-.1m5.5 0 .1.1z" class="p_C"/><path d="m53.3 179 .1.1-.1-.2m24.3 0 .1.2z" class="p_B"/><path d="m175.7 179.1.1.1-.2-.1m11.6 0v1.2h.2z" class="p_D"/><path d="m53.1 179.3.1.1-.1-.2m6 0 .1.2-.1-.2m14.4 0 .1.2z" class="p_B"/><path d="m175.3 179.3.2.1-.2-.2m9.5 0 .1.2-.1-.2m60.6 0 .1.2-.1-.2m.6 0 .1.2z" class="p_C"/><path d="M53 179.6v2.5h.1l-.2-2.5m23.6 0 .1.1z" class="p_B"/><path d="m174.9 179.6.2.1-.2-.1m-1.3 2.2v.3c1.6 1 3.2 2.5 5 1.3a5.6 5.6 0 0 1-.5-3.8c-1.6.1-3.2 1.4-4.5 2.2z" class="p_D"/><path d="m223 179.6.2.1-.1-.1m27.8 0 .2.1z" class="p_C"/><path d="m58 179.8.2.2-.1-.2m14.3 0 .2.2zM57.6 180.2l.1.1-.1-.2m14.4 0 .1.2-.1-.2m3.4 0 .2.2z" class="p_B"/><path d="m222 180.2.1.1-.1-.2m28.5 0 .1.2zM173.3 180.4l.1.2-.2-.2m72.5 0 .2.2zM221.3 180.6l.1.1-.2-.1m29 0 .2.1z" class="p_C"/><path d="m56.6 180.8.1.1-.1-.2m14.3 0 .2.2-.2-.2m3.5 0 .1.2zM56 181l.1.2-.2-.1m14.5 0 .1.1-.1-.1m3.5 0 .2.1z" class="p_B"/><path d="M83.4 181v2.1h.1l-.1-2m88.8 0 .2.1-.2-.1m48.3 0 .1.1z" class="p_C"/><path d="M83.4 181.2c-1 .3-1.7.9-2.5 1.3l-1.7 1c-.5.3-3 2.2-1.3 2.7.6.1 1.5-.7 2-1 1-.4 3-1.2 3.4-2.1.2-.5.1-1.3.1-1.9m88.6 0 .2.2z" class="p_D"/><path d="m54.9 181.7.2.1-.2-.2m18 0 .1.2z" class="p_B"/><path d="M128.6 191.6c2.3-.7 4.5-2.5 6.5-3.7.9-.5 2.2-1 2.8-1.8.4-.5.6-4-.1-4.3-.9-.4-3 1.4-3.7 1.8-1.5.9-4.4 1.9-5.4 3.3-.7 1-.5 3.6-.1 4.7z" class="p_D"/><path d="m138 181.7.1.1-.1-.2m33.1 0 .2.2zM219.4 181.7l.2.1-.2-.2m30 0 .2.2zM219.2 181.8l.1.1-.2-.1m12.5 0 .2.1z" class="p_C"/><path d="m54.4 182 .2.1-.2-.2m17.9 0 .1.2z" class="p_B"/><path d="M206.7 182.1c-.9 3.7-5 5-8.4 5.1v.2l3.5 1.5 1.5 1 2.5-1.3 5.7-3.2v-.3z" class="p_F"/><path d="m53.1 182.3.1.1-.1-.2m16.3 0 .2.2-.2-.2m2.5 0 .1.2zM53.5 182.4l.1.1h-.1m18-.1.2.2z" class="p_B"/><path d="m170 182.4.1.2-.2-.2m36.7 0 .1.2z" class="p_D"/><path d="M59.1 182.8c-1.4.3-5 2.3-5.7 3.5-.4.6-.7 3.4.3 3.4.6 0 1.2-.5 1.7-.8 1.2-.7 3.5-1.6 4.2-2.9.3-.6.7-3.4-.5-3.2z" class="p_E"/><path d="M168 185.3c1 .5 2.4 1.8 3.6 2 1 0 3.9-1.7 4.4-2.7-1-.6-2.3-1.6-3.5-1.8-1.2-.2-3.8 1.6-4.5 2.4z" class="p_D"/><path d="m58.5 183 .1.1-.1-.1m11 0 .1.1-.2-.1m1.1 0 .1.1zM58.2 183.2l.2.1-.2-.2m25.2 0v2.9h.1z" class="p_B"/><path d="m134.7 183.2.2.1-.2-.2m33.9 0 .1.2-.1-.2m80 0 .1.2z" class="p_C"/><path d="m167.1 184 .1.2-.1-.1m38.7 0 .1.1zM83.4 198c-3.3 1-6.7 3.7-9.6 5.4l-14.7 8.5c-2.9 1.6-5.8 3.7-8.9 5-2 1-3.7-.4-5.5-1.3-.6-.3-1.7-.7-1.7-1.5 0-1.1 2.3-2 3-2.5a7.6 7.6 0 0 1-1.1-4.7c-3.3 1.3-6.4 3.6-9.5 5.3-1 .6-2.7 1.4-2.4 2.9.2 1.7 3 2.7 4.4 3.4l13.5 7.8 41.6 24.1 11.6 6.7c2.2 1.2 4.2 2.7 6.8 3 3 .3 5.8-2 8.3-3.5l17.6-10.1 69.4-40.1c-1.2-1-3.1-1.6-4.6-2.3-6.3-3.1-14.1-5.5-15.4-13.5-.1-1.1-.2-2.5.1-3.7-1.5-.6-4.1-2.5-5.7-2.3-.7 0-1.5.7-2.1 1l-4.6 2.8-16.5 9.5-48.3 27.9-14.9 8.5c-2.4 1.4-5.3 3.8-8 4.4-2.3.5-5.5-2.3-7.5-3.4l-19-10.9-5.7-3.2c-.5-.3-1.7-.8-1.6-1.6 0-.8 1.2-1.2 1.7-1.5l5.6-3.2 17.5-10.2 4.4-2.5c.5-.3 1.3-.6 1.6-1.1.5-.7.2-2.3.2-3.1z" class="p_D"/><path d="m131.6 185 .1.1-.1-.2m33.8 0 .2.2z" class="p_C"/><path d="m165 185.3.1.1-.1-.2m39.6 0 .2.2z" class="p_D"/><path d="m247.7 185.4.1.2-.2-.2m-193.6.2.1.1z" class="p_B"/><path d="M247.7 185.7z" class="p_C"/><path d="m164 185.8.1.2-.2-.2m-1.3 2.7c1 .6 2.4 1.8 3.6 2 1.2 0 3.3-1.7 4.4-2.4-.7-.8-2.8-2.3-4-2.2-.7.1-1.5.8-2.2 1.2s-1.6.7-1.8 1.4m41.1-2.7.2.2zM247.7 185.8v.6h.1z" class="p_D"/><path d="m129.8 186 .1.1-.2-.1m34 0 .1.1z" class="p_C"/><path d="m210.2 186 .1.1-.2-.1m-127 .1.1.2zM209.8 186.2l.2.1-.2-.2m-156.6.2.2.1-.1-.1m29.5 0 .1.1z" class="p_B"/><path d="M247.7 186.6zM73.8 186.7c-.9.1-1.8 1-2.5 1.4l-6 3.4c-.5.3-2 2-.8 2.2.8.2 1.9-.7 2.6-1.1 2-1.3 4.8-2.3 6.7-4 .4-.3 1.1-2 0-1.9zM137.3 186.6l.1.1-.2-.1m25.4 0 .2.1z" class="p_C"/><path d="M201.3 186.8z" class="p_D"/><path d="m247.7 186.8.1.1-.2-.2M53 187v2.5h.1L53 187m5.6 0 .2.1-.2-.1m23.2 0 .1.1z" class="p_B"/><path d="m162.2 186.9.1.2-.2-.2m38.4 0 .1.1zM74.4 187v.5h.1zM161.8 187l.2.2-.2-.1m37.6 0h.1z" class="p_D"/><path d="M230.8 187.2z" class="p_C"/><path d="M221.7 187.6c-1.1.2-2 1.3-2.5 2.3-.3.6-.3 1.7.7 1.6 1.1-.2 2.3-1.5 2.7-2.5.3-.7 0-1.6-.9-1.4z" class="p_D"/><path d="m135.2 187.8.1.1-.2-.1m25.4 0 .2.1zM134.8 188l.2.1-.2-.2m95.8.2z" class="p_C"/><path d="m247.3 188 .2.1-.2-.2m-190.8.2.2.1-.2-.1m23.1 0 .2.1-.2-.1m3.6 0 .2 6.5h.1v-4.7zM56.3 188.3l.1.1-.1-.2m26.6 0 .2.2z" class="p_B"/><path d="m134.4 188.3.2.1-.2-.2m25.4 0 .1.2z" class="p_C"/><path d="m206 188.4.1.2-.2-.2m-127 .2.2.1-.2-.1m3.6 0 .1.1z" class="p_B"/><path d="m219.8 188.8.1.2-.2-.2m10.7.1.1.2zM133 189l.2.1-.1-.1m25.3 0 .2.1z" class="p_C"/><path d="m54.8 189.2.1.1-.1-.2m23.2 0 .1.2-.1-.2m3.4 0 .2.2zM204.2 189.4l.1.2-.2-.2m42.5 0 .2.2-.2-.2m-193.5.2.2.1z" class="p_B"/><path d="m153.9 193.5 3.6 1.9 2-.9 4.3-2.5c-.3-.6-.8-.8-1.3-1.1-.7-.4-1.5-1.1-2.3-1.1-1.2-.1-2.8 1.3-3.7 1.9-1 .5-2.1.9-2.6 1.8z" class="p_D"/><path d="M53.3 189.8v.1h.4l-.5-.2m24.4 0 .1.2-.1-.2m2.8 0 .2.2z" class="p_B"/><path d="M59.2 190.2c-.5 0-1.1.5-1.6.8-1.2.7-3.6 1.5-4.3 2.8-.3.5-.6 3.1.3 3.2.5.1 1.2-.4 1.6-.6 1.3-.8 3.7-1.6 4.4-3 .3-.6.6-3.2-.4-3.2z" class="p_E"/><path d="m131.3 190 .1.2-.2-.1m25.4 0 .2.1-.2-.1m62.4 0 .1.1-.1-.1m27.1 0 .2.1z" class="p_C"/><path d="M77.4 190.2v.6h.1z" class="p_B"/><path d="m130.2 190.7.2.1-.2-.2m25.4 0 .1.2-.1-.2m63.3 0 .1.2-.1-.2m2.4 0 .1.2z" class="p_C"/><path d="m57.4 191 .2.1-.2-.2m20.9 0 .1.2z" class="p_B"/><use xlink:href="#p_H" x="-107.2" y="120" class="p_D"/><path d="m219.2 191.4.1.2-.2-.2m1 0 .1.2-.1-.2m8.7 0 .1.2-.1-.2m16 0 .1.2zM153.8 191.7l.1.2-.2-.2m74.6 0 .1.2-.1-.2m16 0 .2.2zM73.6 192c-1 .2-2 1-2.8 1.5l-5.6 3.2c-.4.3-2 2-.7 2.3.8.1 2-.9 2.5-1.2 2.2-1.2 5.2-2.4 6.9-4 .4-.5.9-2-.3-1.9m79.8 0 .2.1-.2-.2m74.6 0 .1.2z" class="p_C"/><path d="m64.4 192.2.1.1-.1-.2m10 0v.7h.2l-.2-.7m78.6 0 .1.2z" class="p_D"/><path d="m243.6 192.2.1.1-.1-.2m-188.6.2.2.1z" class="p_B"/><path d="m67 192.4.2.2-.1-.2m5.3 0 .2.2zM152.3 192.6l.1.1-.2-.1m90.5 0 .2.1z" class="p_D"/><path d="m242.6 192.8.1.1-.1-.2M54 193l.1.1z" class="p_B"/><path d="m151.7 192.9.1.2-.2-.2m74.6 0 .2.2-.2-.2m16 0 .2.2z" class="p_C"/><path d="m71.4 193 .1.2-.1-.1m2.8 0 .2.1zM242 193l.1.2-.2-.1m-90.7.1.2.2zM65.3 193.5l.1.1-.2-.1m5.4 0 .2.1zM64.4 193.8v.1h.4l-.4-.1m9.2 0 .2.1-.2-.1m76.5 0 .2.1z" class="p_D"/><path d="m196.7 193.8.1.1-.2-.1m44.2 0 .1.1-.1-.1m-187.7.1.2.2-.2-.2m6 0 .2.2z" class="p_B"/><path d="M147.4 197v.1c1 .6 2.7 2 3.8 2 1.5 0 3.8-2 5.1-2.7v-.3c-1-.7-2.4-1.9-3.6-2-1.4-.1-4.2 2-5.3 2.8z" class="p_D"/><path d="m196.3 194 .2.1-.2-.2m28.1 0 .1.2zM53 194.3v2.5h.1l-.2-2.6m5.7 0 .2.2z" class="p_B"/><path d="m72.9 194.3.1.1-.1-.2m76.5 0 .1.2z" class="p_D"/><path d="m195.9 194.3.2.1-.2-.2m27.9 0 .2.2z" class="p_B"/><path d="M83.4 195h.1z" class="p_C"/><path d="m194.8 194.8.2.2-.2-.2m28 0 .1.2-.2-.2m-165.4.2.1.1z" class="p_B"/><path d="M83.4 195.3v1.6h.1z" class="p_C"/><path d="M132.9 216.8v.1l15.3 8.8 4 2.4 2 1 2.9-1.5 25.6-14.8 8.9-5v-.4c-5.3-2.2-10.3-5.8-15.3-8.7l-4.1-2.3c-.6-.4-1.3-1-2-1-.9 0-2.1 1-3 1.5l-7.4 4.3-26.9 15.5z" class="p_F"/><path d="M193.7 196.4v.2-.2m26.5 0 .2.1z" class="p_B"/><path d="m236 196.5.1.1-.2-.1m-192.9.1.2.2zM68.3 197l.1.1-.2-.2m15.2 0 .1.2z" class="p_D"/><path d="M53.3 197.1v.1h.4z" class="p_B"/><path d="M83.4 197.1v.6h.1z" class="p_C"/><path d="m42 197.3.1.1-.1-.2m102.2 0 .1.2z" class="p_D"/><path d="m194.4 197.3.2.1-.2-.2m24.3 0 .2.2-.2-.2m16 0 .2.2z" class="p_B"/><path d="M59.1 197.5c-.6.1-1.2.6-1.7.9-1.1.7-3.3 1.4-4 2.6-.4.6-.7 3.4.3 3.4.6 0 1.2-.5 1.7-.8 1.2-.7 3.5-1.5 4.2-2.9.3-.6.7-3.4-.5-3.2z" class="p_E"/><path d="m83.4 197.7.1.2-.1-.2m60 0 .1.2-.1-.2m6.6 2.3c-.7-.8-2.8-2.3-3.9-2.2-.9 0-2 1-2.7 1.4-.5.2-2 .9-2 1.5s1.3 1 1.7 1.3c2.4 1.4 4.8-.6 6.9-2z" class="p_D"/><path d="m195.2 197.7.1.2-.2-.2m38.9 0 .2.2z" class="p_B"/><path d="M83.4 197.8v27.3h.1v-24.6z" class="p_C"/><path d="m195.9 198.2.2.1-.2-.2m21.2 0 .1.2z" class="p_B"/><path d="m232.7 198.4.1.2-.2-.2m-193 .2.1.1z" class="p_C"/><path d="m64 198.8.2.1-.1-.2m77.5 0 .2.2zM232 198.8l.2.1-.1-.2M39 199l.2.1z" class="p_D"/><path d="m197.3 198.9.1.2-.2-.2m34.7 0 .1.2zM197.6 199l.1.2-.1-.1m18 0 .1.1z" class="p_B"/><path d="m231.6 199 .1.2-.1-.1m-193 .1.1.2z" class="p_C"/><path d="m198.6 199.7.1.1-.1-.2m15.9 0 .1.2z" class="p_B"/><path d="m37.5 199.8.1.1-.1-.1m68.5 0 .1.1h-.1m33.6-.1.2.1z" class="p_C"/><path d="M96.9 209.8c1.6-.4 3-1.6 4.5-2.4 2.3-1.3 5.1-2 5.1-5 0-.6.3-2.1-.3-2.3-1-.4-3 1.3-3.8 1.8-1.5.8-4.4 1.9-5.4 3.3-.6 1-.4 3.6-.1 4.7m42.6-10 .1.2z" class="p_D"/><path d="m199 200 .2.1-.1-.2m31 0 .1.2z" class="p_B"/><path d="M134.7 204.3v.1c.9.7 2.6 2.1 3.8 2 1.5 0 3.8-2 5-2.7v-.3c-1-.6-2.4-1.8-3.6-1.9-1.4-.1-4 2-5.2 2.8z" class="p_D"/><path d="m211.3 201.4.2.2-.2-.2m-158.4.2v2.5h.2zM202.2 201.8l.2.1-.2-.2m8.7 0 .2.2-.2-.2M58 202l.2.1zM210.3 202l.1.2-.1-.1m19.1 0v.2-.1m-171.8 0 .1.2zM203 202.2l.1.2-.2-.2m-145.6.2.1.1zM203.3 202.3l.1.2-.2-.2m6.7 0 .1.2-.1-.2m-152.9.2.2.1zM204.3 203l.1.1-.1-.2m4.5 0 .1.2-.1-.2m-152.8.2.1.1z" class="p_B"/><path d="M83.3 203.1c-1 .6-2.5 1-3 2.1l3.1 1.7z" class="p_D"/><path d="m205 203.4.2.2-.1-.2m3 0 .1.2-.1-.2m-152.9.2.2.1zM230 204.4v.1-.1m-176.5.1h.1z" class="p_B"/><path d="m131.1 204.8.1.1-.1-.2m-34 .2.1.1-.2-.1m33.8 0 .1.1z" class="p_C"/><path d="m130.7 205 .1.2-.2-.1M102 223c.2.7.9 1 1.5 1.3s1.4 1 2.1 1c1.1 0 2.8-1.4 3.8-2l20.5-11.8 5.3-3c.7-.4 1.6-.8 1.9-1.6l-3.6-1.9-2.5 1.3-6.2 3.5-13.6 7.9z" class="p_D"/><path d="m96.8 205.3.1.2-.2-.2m33.4 0 .1.2z" class="p_C"/><path d="M74.9 207.9c.2 1 2.7 2.4 3.7 2.3.8 0 1.6-.7 2.3-1 .7-.5 1.5-.8 1.7-1.6l-3.5-1.8z" class="p_D"/><path d="M96.6 205.8v3.8h.2l-.2-3.8m7.4 0 .1.1z" class="p_C"/><path d="m230.4 206 .1.1m-11 0 .1.1-.2-.1m1.5 0v.5h.2zM230.6 206.7zM218.4 207.2l.2.1-.2-.2m12.4.2zM218.6 207.8v.1m12.3-.2.1.2zM218.8 208.4v.2-.2m12.2 0 .1.1z" class="p_B"/><path d="M69.3 211.2c.3.6.9.9 1.5 1.2.6.4 1.4 1 2.1 1 1.3.1 3.3-1.6 4.4-2.2v-.3c-1-.6-2.7-2-3.8-2-1.2 0-3.2 1.6-4.2 2.3z" class="p_D"/><path d="m221.7 209 .2.1-.2-.2m9.4 0 .2.2zM218.9 209.2v.1zM221.9 209.3v.1z" class="p_B"/><path d="m122.8 209.6.2.1-.2-.1m-39.6.1-.4.3v.4l.6.2z" class="p_D"/><path d="m219 209.8.1.1v-.1m2.9-.1.1.2zM26 210.1v.1zM222.2 210l.1.1-.2-.1m9.4.1v.1z" class="p_B"/><path d="m121.8 210.2.1.1-.1-.2m-.3.2.1.1z" class="p_D"/><path d="M219.2 210.6z" class="p_B"/><path d="M77.3 213.6c1 .5 2 1.3 3.1 1.7 3.5 1.4 4.1-5.3.7-4.3-.7.3-1.4.8-2 1.2-.7.4-1.5.7-1.9 1.4m43.2-2.7.2.1z" class="p_D"/><path d="M219.3 211.2h.1m12.4 0 .1.1zM209.8 211.7v.4h.2l-.2-.4m13.1 0 .1.1-.1-.2m-196.5.2.1.1-.1-.1m183.1 0 .2.1-.2-.1m10 .1v.1-.1m12.4-.1.1.1z" class="p_B"/><path d="M63.8 214.3c.3.7.9 1 1.5 1.3.6.3 1.3 1 2 1 1.3.2 3.4-1.6 4.4-2.2v-.4c-1-.5-2.4-1.8-3.6-1.9-1.3 0-3.2 1.6-4.3 2.3z" class="p_D"/><path d="m208.8 212.3.1.1-.1-.2m14.4 0 .2.2-.2-.2m8.9.2zM219.7 212.5v.1zM207.8 212.8l.1.2-.2-.2m2.3 0v.5h.1l-.1-.5m22.3.1v.2z" class="p_B"/><path d="m28 213.2.2.1-.1-.2m88.5 0 .1.2-.1-.2m90.5 0 .2.2z" class="p_D"/><path d="m219.8 213.3.1.1-.2-.1m4.1 0 .1.1zM32 213.6l.1.1-.2-.1m1.1 0 .1.1zM224 213.6l.1.1-.2-.1m-191 .1.1.2z" class="p_B"/><path d="m115.5 213.8.1.1-.1-.2m90.6 0 .2.2z" class="p_D"/><path d="M210.2 213.8v.1zM220 214v.1-.1m4.1-.1.1.1z" class="p_B"/><path d="M71.9 216.3c.3 1 2.7 2.4 3.7 2.3.8 0 1.6-.7 2.3-1.1.6-.4 1.5-.7 1.7-1.5l-3.5-1.9z" class="p_D"/><path d="m205.7 214 .1.2-.2-.1m26.9 0 .2.1z" class="p_B"/><path d="m114.8 214.2.1.2-.2-.2m90.7 0 .1.2z" class="p_D"/><use xlink:href="#p_b" class="p_D"/><path d="m224.8 215.3.2.1-.2-.2m8 0 .1.2z" class="p_B"/><use xlink:href="#p_c" class="p_D"/><path d="m31.4 216 .1.1-.1-.1m47.7 2.3c.3.7 3.5 3 4.1 2 .7-.9.2-3.3.2-4.3-1.5.2-3 1.5-4.3 2.3m32.5-2.3.1.1-.1-.1m90.6 0 .2.1z" class="p_D"/><path d="M210.8 216.1v.1-.1m9.6 0v.1-.1m4.9-.1.1.1z" class="p_B"/><path d="M63.8 218.6c-1.1-.5-2.6-2-3.8-2-1 .2-2 1.1-2.9 1.6-.4.2-2 .9-1.8 1.5.1.6 1.1 1 1.6 1.2.5.3 1.1.8 1.7.8.5 0 1-.3 1.4-.5 1-.7 3.4-1.4 3.8-2.6z" class="p_D"/><path d="m31 216.8.2.1-.1-.2m79.1 0 .2.2z" class="p_C"/><path d="m201 216.8.1.1-.1-.2m19.6.2zM211 216.9l.2.2-.1-.2m22.2.1v.1z" class="p_B"/><use xlink:href="#p_a" x="13.5" y="99.8" class="p_D"/><path d="m225.9 217 .2.2-.2-.1m-195 .1.2.2z" class="p_B"/><path d="M66.3 219.6c.3.6.9.9 1.5 1.2.6.4 1.4 1 2.1 1 1.3.1 3.2-1.6 4.4-2.2v-.3c-1-.6-2.7-2-3.8-2-1.2 0-3.2 1.6-4.2 2.3z" class="p_D"/><path d="m200 217.3.1.2-.2-.2m11.3 0 .2.2-.2-.2m14.9 0 .1.2zM220.7 217.6v.1-.1m12.8 0v.1z" class="p_B"/><path d="m108.8 217.7.1.1-.2-.2m90.7 0 .1.2z" class="p_D"/><path d="m211.3 217.7.2.1-.2-.2m14.9 0 .2.2zM30.8 218v1.1h.1zM198.9 218l.2.1-.2-.2m12.6 0 .2.2zM220.8 218.2l.1.1v-.1m5.6-.1.1.1-.1-.1m7 0 .2.1z" class="p_B"/><use xlink:href="#p_b" x="-6" y="3.5" class="p_D"/><path d="m198.2 218.4.1.2-.2-.2m13.6 0 .1.2-.2-.2m15 0 .2.2z" class="p_B"/><use xlink:href="#p_c" x="-5.7" y="3.3" class="p_D"/><use xlink:href="#p_b" x="-7" y="4" class="p_D"/><path d="M221 219z" class="p_B"/><path d="M73.5 221.4c1.5 3 6.5 2.5 8-.3-1-.6-2.5-1.8-3.6-1.9-1.4 0-3.3 1.6-4.4 2.2z" class="p_D"/><use xlink:href="#p_b" x="-7.8" y="4.5" class="p_D"/><path d="m196 219.6.2.1-.1-.1m16.1 0 .2.1-.2-.1m9 .1v.1-.1m-190.3 0 .1.2zM221.3 220.4v.2-.2m12.9 0v.2z" class="p_B"/><path d="M60.8 222.8c.3.6.9.8 1.5 1.2.6.3 1.3 1 2 1 1.3.2 3.4-1.6 4.4-2.2v-.4c-1-.5-2.4-1.8-3.6-1.8-1.3-.1-3.2 1.5-4.3 2.2m43-2.3.1.1-.1-.1m90.6 0 .2.1zM103 221l.2.1-.2-.2m90.6 0 .2.2zM102.8 221.1l.1.1-.2-.1m90.7 0 .1.1z" class="p_D"/><path d="m193.2 221.3.2.1-.2-.2m35.1 0 .1.2z" class="p_B"/><use xlink:href="#p_c" x="-10.9" y="6.3" class="p_D"/><path d="M221.6 221.8v.1z" class="p_B"/><path d="M83.3 221.8c-1 .6-2.5 1.1-3 2.1l3.4 2z" class="p_D"/><path d="m192.2 221.8.1.2-.2-.2m21.4 0 .1.2-.1-.2m15.1 0 .2.2z" class="p_B"/><use xlink:href="#p_c" x="-11.7" y="6.8" class="p_D"/><path d="m213.6 222.2.1.1-.1-.2m21 .2h.1z" class="p_B"/><path d="M66 225.8v.4l3.6 1.9 2-1 4.3-2.4-1.6-1.4-2-1-2 1z" class="p_D"/><use xlink:href="#p_b" x="-13.5" y="7.8" class="p_D"/><path d="m229 222.6.2.1-.1-.1m-196.5.1.1.2z" class="p_B"/><use xlink:href="#p_b" x="-13.8" y="8" class="p_D"/><path d="M234.8 222.8c-1.2 1.2-3.1 1.4-4.7 1.4.2 1.4.3 3.5.8 4.7.5 1.1 1.5 2 2.4 2.8 2 2.1 5.7 6.5 9.2 5 1.2-.5 0-2.1-.9-2.3l-4.3-5.8-2.5-5.9m-202.1.2.2.1z" class="p_B"/><path d="m32.9 223 .1.2-.1-.1m66.4 0 .1.1-.1-.1m90.8 0 .1.1z" class="p_C"/><use xlink:href="#p_c" x="-13.5" y="7.8" class="p_D"/><use xlink:href="#p_a" x="2.6" y="106" class="p_D"/><path d="m98.3 223.7.1.1-.2-.2m90.8 0 .1.2z" class="p_C"/><path d="m97.8 224 .1.1-.1-.2m-2.2 2.9v.3c.9.6 2.6 2 3.7 2 1.5 0 3.7-2 5.1-2.7-.3-.7-1-1-1.5-1.3-.6-.3-1.4-1-2.1-1-1.5-.2-4 2-5.2 2.7m92.8-2.9.2.2z" class="p_D"/><path d="m97.2 224.3.2.1-.2-.2m90.7 0 .2.2z" class="p_C"/><path d="m214.8 224.3.1.1-.1-.2m-180.2.2.2.1z" class="p_B"/><path d="M71.3 228.8v.4l3.6 1.9 2.3-1.2 5.4-3.1v-.3l-3.5-2-2.3 1-5.6 3.3m25.8-4.4.2.2-.2-.2m90.6 0 .2.2z" class="p_D"/><path d="M222.2 224.8v.1zM215.3 225l.1.1-.2-.1m-179.2.1.1.2z" class="p_B"/><path d="m95.3 225.4.1.2-.2-.2m90.7 0 .1.2z" class="p_D"/><use xlink:href="#p_b" x="-18.8" y="10.8" class="p_D"/><path d="m37 225.8.2.1-.1-.2m57.5 0 .2.2z" class="p_C"/><path d="m185.4 225.8.2.1-.2-.2m30.3 0 .2.2z" class="p_B"/><path d="m83.7 226 .2.2-.2-.1m10.5 0 .2.1-.2-.1m90.6 0 .1.1z" class="p_D"/><path d="m215.8 226 .2.2-.2-.1m6.7 0v.2-.1m-184.7 0 .1.2-.1-.2m46 0 .2.2zM216.2 226.5l.1.1-.2-.1m-177.5.1.1.2z" class="p_B"/><path d="m84.1 226.7.2.1-.2-.2m9 0 .2.2-.2-.2m90.7 0 .1.2zM39.1 227l.2.1-.2-.2m45.3 0 .2.2z" class="p_D"/><path d="m92.6 227 .1.1-.1-.2m90.7 0 .1.2z" class="p_C"/><path d="M82.8 228.2v.3c1 .5 2.6 2 3.8 2 .8-.1 1.7-.9 2.3-1.3l-4.3-2z" class="p_D"/><path d="M230.6 227.1c-.8 1.5-.8 4.8.2 6.1.7 1 2 1.6 2.9 2.5 2.6 2.4 4.1 4.7 8.1 4.6 1.3 0 4.7-.9 4-2.8-.5-1-2.7-2.3-3.7-2.8.3.4.9 1 .9 1.4 0 .6-1 .7-1.4.7-1.2.1-2.5-.3-3.5-1a21.4 21.4 0 0 1-7-6.8c-.4-.6-.3-1.3-.6-1.9z" class="p_F"/><use xlink:href="#p_a" x="-4.2" y="110" class="p_D"/><path d="m216.8 227.6.1.1-.2-.1m1 1.3c.4 1 .9 2 1 3 .2 1 .1 2 .5 2.9 1 2.3 4 5 6 6.5a7 7 0 0 0 4.2 1.7c.4 0 1.3 0 1.5-.6.3-1.2-2.2-3.1-2.8-3.9-2.8-3.5-3.8-7-5.4-11a11 11 0 0 1-5 1.4z" class="p_B"/><path d="m91.4 227.7.1.2-.1-.2m-2.2 2.7c.3.7 1 1 1.5 1.3.7.4 1.4 1 2.2 1 1.5.1 3.7-2 5-2.6-.2-.7-.8-1-1.5-1.3s-1.3-1-2-1c-1.6-.1-3.7 2-5.2 2.6m92.7-2.7.2.2z" class="p_D"/><path d="M230.1 227.7v1.4h.1l-.1-1.4m-189.4.2.1.1z" class="p_B"/><use xlink:href="#p_a" x="-5.3" y="110.5" class="p_D"/><path d="m41 228 .1.1-.2-.1m49.9 0 .1.1zM86.6 228.2l.1.1-.1-.2m3.8 0 .2.2-.2-.2m90.8 0 .2.2z" class="p_C"/><use xlink:href="#p_a" x="-6" y="111" class="p_D"/><path d="m87.6 228.8.2.1-.2-.2m1.8 0 .2.2-.2-.2m90.7 0 .2.2z" class="p_C"/><use xlink:href="#p_W" x="-104.3" y="131.7" class="p_C"/><path d="m89.3 228.9.1.2-.2-.2m90.7 0 .1.2zM76.5 231.8c.2.7 1 1 1.6 1.4.6.3 1.3.9 2 .9 1.2 0 4.6-2 5.1-3.1-1-.6-2.5-1.8-3.6-1.9-1.5 0-3.8 2-5.1 2.6z" class="p_D"/><path d="M88.4 229v.2h.4z" class="p_C"/><path d="M230 229.8v1.3h.1z" class="p_B"/><path d="M81.6 234.9c.7.8 2.8 2.3 3.9 2.2 2-.3 4.5-2.4 6.1-3.4v-.3c-1-.6-2.5-2-3.7-2-.7 0-1.4.6-2 1l-4.3 2.5z" class="p_D"/><path d="M230.2 231.8v.1z" class="p_B"/><path d="M218.7 232.8c-.6 1.7-1 4.8.3 6.3.7 1 2 1.6 2.8 2.5 2.3 2.6 4 5 7.8 4.8 1.3 0 4.3-.6 3.9-2.5-.2-1-2.2-2.3-3.1-2.7 1 2.3-1.8 2-3.3 1.2-2.6-1.2-4.5-3.6-6.3-5.7-1-1.2-2-2.3-1.8-3.9z" class="p_F"/><path d="m230.4 232.8.2.1-.2-.1m-180.9.1.1.2-.1-.2m123.5 0 .1.2-.2-.2m57.7 0 .1.2zM170.8 234.2l.2.1-.2-.2m61 0 .1.2zM218.3 234.4v.5h.1l-.2-.5m14 0 .2.2zM169.8 234.8l.1.1-.1-.2m62.8 0 .2.2zM242.7 235l.2.2-.2-.1m-189.3.1.2.2-.2-.2m115.6 0 .2.2-.2-.2m64.2 0 .2.2-.2-.2m9.8 0 .1.2zM218.1 235.5v1.8h.1l-.1-1.8m15.4 0 .2.1-.2-.1m-179.4.1.2.2zM233.7 235.7l.2.1-.2-.2m9.9 0 .1.2zM234 236l.1.1-.1-.2m10 0 .2.2zM234.2 236.1l.1.1-.2-.1m10.1 0 .2.1-.2-.1m-189 .1.2.2zM167 236.4l.1.2-.2-.2m77.7 0 .2.2zM218.3 237.8v.1m17.2-.2.1.2-.1-.2M58 238l.2.1zM164.1 238l.1.2-.1-.1m71.7 0 .1.1zM236 238.2l.1.2-.2-.2m9.8 0 .2.2zM218.8 239l.2.1-.2-.2m18 0 .2.2-.2-.2m8.4 0 .2.2-.2-.2m-185 .2.1.1-.2-.1m177 0 .2.1-.2-.1m8 0 .1.1zM162 239.3l.1.1-.1-.2m75.3 0 .1.2zM237.9 239.6l.2.1-.2-.1m6.6 0 .2.1-.2-.1m-183.3.1.2.2-.2-.2m100 0 .2.2-.1-.2m58.3 0 .2.2-.2-.2m18.8 0 .1.2-.1-.2m5.8 0 .2.2zM219.8 239.8l.1.2-.2-.2m19 0 .1.2-.2-.2m-176.9.2.1.1zM219.9 240l.2.1-.2-.1m19.3 0 .1.1h-.1m4.1-.1.2.1-.2-.1m-181.3.1.1.2zM239.7 240.2v.1h.4l-.4-.2m2.9 0v.2h.4zM63 240.8l.1.1-.1-.2m158 0 .1.2zM159.2 240.9l.1.2-.2-.2m62 0 .2.2zM221.8 241.7l.2.1-.2-.2m9.3 0 .2.2-.2-.2m-166.3.2.1.1zM157.3 242l.2.1-.2-.2m74.3 0 .1.2zM222.2 242.1l.1.1-.2-.1m9.7 0 .1.1zM222.3 242.3l.1.1-.1-.2m9.6 0 .2.2-.2-.2m-166 .2.1.1zM222.8 242.8l.1.2-.2-.2M67 243l.2.1-.2-.1m166 0 .2.1zM223 243.3l.2.1-.1-.1m10.1 0 .2.1-.2-.1m-165.6.1.2.2zM233.6 243.8v.7h.1l-.1-.8m-165.2.2.2.1zM224.4 244.7l.2.1-.2-.2m9 0 .2.2zM225.8 245.6l.1.1-.2-.1m6.8 0 .1.1-.1-.1m-161 .1.2.2zM226 245.7l.2.2-.1-.2m6.3 0 .1.2-.1-.2m-160.5.2.1.1-.1-.1m78.7 0 .1.1-.1-.1m75.8 0 .1.1-.1-.1m5.6 0 .2.1zM227.3 246.2h.1m3.8 0h.1m-158.7.1.1.1zM228 246.3v.1h.6l-.6-.1m2.3 0v.1h.4zM78.6 249.8l.2.1-.2-.2m65.3 0 .1.2zM89.3 255.9l.1.2-.2-.2m44 0 .2.2zM109.8 267.4z" class="p_B"/><path d="m110 267.3.1.1-.1-.1m2.2 0v.1h.4z" class="p_D"/><defs><path id="p_F" d="m82.5 69.8.1.1-.1-.2m18.3 0 .1.2z"/><path id="p_H" d="m172.8 71.3.1.1-.1-.2m3.6 0 .2.2z"/><path id="p_J" d="m171.2 72.1.1.2-.2-.2m3.7 0 .1.2z"/><path id="p_O" d="m158 79.6.1.2-.2-.2m3.5 0 .2.2z"/><path id="p_P" d="m151 83.6.2.1-.1-.1m3.4 0 .1.1z"/><path id="p_R" d="m148.5 85 .1.2-.1-.1m3.4 0 .2.1z"/><path id="p_T" d="m145.7 86.7.1.2-.2-.2m3.5 0 .2.2z"/><path id="p_U" d="m206 89.3.1.1-.2-.2m1.2 0 .2.2z"/><path id="p_V" d="m202.8 91 .1.2-.1-.1m1.2 0 .1.1z"/><path id="p_W" d="m192.2 97.2.1.2-.2-.2m1.3 0 .1.2z"/><path id="p_X" d="m190 98.4.2.1-.1-.1m1.1 0 .2.1z"/><path id="p_Y" d="m188.3 99.4.1.2-.2-.2m1.2 0 .2.2z"/><path id="p_Z" d="m177.3 105.8.1.1-.1-.2m1.2 0 .1.2-.1-.2m27.1 0 .2.2-.2-.2m1.3 0 .1.2z"/></defs></svg>