<svg xmlns="http://www.w3.org/2000/svg" viewBox="0 0 7500 5000">
  <path d="M1510 1640c-90 670 260 1360 800 1760s1260 540 1930 440c480-60 950-250 1290-600s510-860 380-1330c-60-170-160-340-320-430-250-140-570-40-840 70s-580 210-840 70c-200-110-300-330-440-500-250-290-640-450-1020-400a1080 1080 0 00-140 30c-400 110-710 440-790 850Z" fill="#ebebeb"/>
  <path d="M5700 1050c-30 10-40 50-40 80l-10 80c-20 40-50 60-50 90l10 60c0 40-40 60-40 100l10 70-20 50c-20 40 10 80 40 100a150 150 0 00 210-70c20-40 20-90 10-140l-20-440" fill="#263238"/>
  <path d="M5620 1570a30 30 0 00 10-20 60 60 0 00 10-20 130 130 0 00-10-40 90 90 0 01-10-40l30-40a90 90 0 00 10-20 30 30 0 00 0-20c0-20-20-30-30-50a50 50 0 01 0-30 120 120 0 01 10-30 220 220 0 00 20-40l10-90a100 100 0 01 30-50 60 60 0 01 10-10 80 80 0 00-10 10 100 100 0 00-30 50 330 330 0 00 0 40 250 250 0 01 0 50 220 220 0 01-20 50c-10 10-20 30-10 50l30 50a40 40 0 01 0 20 90 90 0 01-20 30l-20 30a90 90 0 00 0 40 140 140 0 01 10 40 60 60 0 01-10 20 30 30 0 01-10 10 20 20 0 01 0 10Z" fill="#455a64"/>
  <path d="m5540 1800-90 260-380 20-60 140 390 40a150 150 0 00 200-80l100-300Zm780 2460-280-910c-10-20 100-650 110-820l-370 20-160 10 140 1790h170l-10-590c100 280 250 570 250 570Z" fill="#b78876"/>
  <path d="M5920 3970v-200c0 10-70-170-60-180l60 380Z" fill="#a36957"/>
  <path d="M5850 3510a40 40 0 00 0 10 270 270 0 00 0 30v40a410 410 0 00 20 50l30 90 10 30a40 40 0 00 10 10 40 40 0 00 0-10l-10-30-40-90a430 430 0 01-10-50 330 330 0 01-10-70 50 50 0 00 0-10Z" fill="#a36957"/>
  <path d="M5760 4360v-20h170v60h-290c-30-10 120-40 120-40Z" fill="#455a64"/>
  <path d="M5940 4400a20 20 0 01-10 0h-290 300Zm-240 0a80 80 0 00-10-10 70 70 0 00-10-10 20 20 0 01 20 10 20 20 0 01 0 10Zm50-20v-10l-10-10a40 40 0 00 10 20Zm20-10h-10v-10c10 0 0 0 0 0l10 10Zm0-20a20 20 0 01-10 0 20 20 0 01 10 0Zm10-10a20 20 0 01-10 0 20 20 0 01-10 0 60 60 0 01 10 0 50 50 0 01 10 0Z" fill="#263238"/>
  <path d="M5750 4360a30 30 0 01-20 0 60 60 0 01-10 0 10 10 0 01-10-10 20 20 0 01 30 10 30 30 0 00 0-10 20 20 0 00-10 0 20 20 0 00-10 0c-10 0-10 0 0 0a40 40 0 00 0 10 80 80 0 00 10 0h20Z" fill="#263238"/>
  <path d="M5740 4360a10 10 0 01 0-10 10 10 0 01 10-10l10 10a40 40 0 01-10 10 20 20 0 01-10 0h10a40 40 0 00 0-10v-10 10a20 20 0 00-10 0 40 40 0 00 0 10Zm190-10h-10a60 60 0 00-50 40v10a40 40 0 01 0-10 50 50 0 01 20-30 50 50 0 01 30-10 40 40 0 01 10 0Zm-80 30a100 100 0 01-30 10 90 90 0 01-20-10h50Zm30 0v10-10Zm20-10h-10 10Zm10-10h-10 10c10 0 0 0 0 0Zm20 0h-10c-10 0 0 0 0 0h10Z" fill="#263238"/>
  <path d="m6170 4340-10-10 160-80 30 60-10 10c-50 20-220 110-260 110-30 10 90-90 90-90Z" fill="#455a64"/>
  <path d="M6350 4310h-10l-30 20-100 40-90 40-30 10-10 10 10-10 30-10 90-40 100-50 30-10Z" fill="#263238"/>
  <path d="M6140 4410a70 70 0 00-20-10 70 70 0 00-10-10 30 30 0 01 30 20Zm30-50h-10v-10 10h10Zm10-10h-10c-10 0 0 0 0 0h10Zm0-20-10 10v-10a20 20 0 01 10 0Zm0-10-10 10a20 20 0 01-10 0 50 50 0 01 10-10h10Zm-20 30a30 30 0 01-10 10 80 80 0 01-10 0 30 30 0 01-10 0v-10a20 20 0 01 20 0 20 20 0 01 10 0 30 30 0 00-10 0 20 20 0 00-10 0 20 20 0 00-10 0v10a40 40 0 00 10 0 80 80 0 00 10-10h10Z" fill="#263238"/>
  <path d="M6160 4350a10 10 0 01-10 0 20 20 0 01 0-10 10 10 0 01 10-10h10l-10 10a30 30 0 01 0 10v-20l-10 10a20 20 0 00 0 10 40 40 0 00 10 0Zm160-90-10 10a60 60 0 00-20 20 60 60 0 00 0 30v10a50 50 0 01 0-10 50 50 0 01 20-50 50 50 0 01 10-10Zm-60 70a140 140 0 01-40 20l20-10 20-10Z" fill="#263238"/>
  <path d="M6290 4310v20-20Zm10-20v10h-10 10v-10Zm10-10-10 10 10-10c10 0 0 0 0 0Zm10-10v10-10Z" fill="#263238"/>
  <path d="m6130 2240-30-360h150l-20-170c-10-70-60-110-110-140h-10a430 430 0 00-130-30h-190s-140-20-220 80c-30 40-120 300-120 300l220 110-20-150 20 140 30 80-10 180Z" fill="#ff725e"/>
  <path d="m6020 1830-20 110h250l-10-190-220 80" fill="#ff725e"/>
  <path d="M6250 1940a210 210 0 00-30 0h-170a200 200 0 00-30 10 220 220 0 00 40 0l80-10h80a220 220 0 00 30 0Zm-240-190a160 160 0 00 0 30v70l10 70a150 150 0 00 0 30 160 160 0 00 0-30v-140a150 150 0 00-10-30Zm-310 350a40 40 0 01-10-10l-10-30a860 860 0 01-20-90 670 670 0 01-10-100l-10-30a40 40 0 01 10-10v40a890 890 0 00 10 100 1210 1210 0 00 30 120 50 50 0 01 10 10Zm60 120-10-20a50 50 0 01 0-20 50 50 0 01 10 20 50 50 0 01 0 20Zm20 0a90 90 0 01 0-60 210 210 0 01 0 30 210 210 0 01 0 30Zm-100-180Z" fill="#263238"/>
  <path d="M5770 1570v-100s-70-10-80-100c-10-80 20-270 20-270 100-40 190 0 260 70l-20 410c0 50-40 90-90 80-50 0-100-40-90-90Z" fill="#b78876"/>
  <path d="M5710 1250a10 10 0 00 10 10 10 10 0 00 10-10 10 10 0 00-10-10 10 10 0 00-10 10Zm-10-10 20-10 20 10v-10a30 30 0 00-20 0 30 30 0 00-10 0l-10 10Zm120 20a10 10 0 00 10 10 10 10 0 00 20-10 10 10 0 00-10-10 10 10 0 00-20 10Zm0-20h30l20 10-10-10a30 30 0 00-10-10 30 30 0 00-20 10h-10Zm-40 90a80 80 0 00-20 0l-10-10a10 10 0 01 10-10l10-20a390 390 0 00 20-60 400 400 0 00-30 60l-10 20a20 20 0 00 0 10 10 10 0 00 0 10 20 20 0 00 10 0 80 80 0 00 20 0Z" fill="#263238"/>
  <path d="M5770 1470a220 220 0 00 110-30s-30 60-110 50Z" fill="#a36957"/>
  <path d="M5860 1210h-20l-20-10 20-10 20 20Zm-120-20-20 10-20-10 20-10 20 10Z" fill="#263238"/>
  <path d="M5780 1360a10 10 0 00-10 0 10 10 0 10 10 0" fill="#a36957"/>
  <path d="M5780 1360a10 10 0 00-10 0 10 10 0 00 0 10 10 10 0 00 10 0 10 10 0 00 10 0l-10-10v10a10 10 0 01-10-10h10Zm150-90c-10 30-30 40-30 70l10 50c0 20-20 30-30 50 0 30 20 50 30 70 20 30 0 70 0 110a120 120 0 00 100 110c30 10 50 0 60-20l20-60 40-70c10-50-60-90-50-140l20-60a90 90 0 00-20-90l-50-40-20-80a190 190 0 00-300-110s-20 60 50 70 100 0 110 30a70 70 0 00 20 60c20 30 50 20 40 50Z" fill="#263238"/>
  <path d="M6040 1730a20 20 0 01-10 0 100 100 0 01-20-10 120 120 0 01-50-30 140 140 0 01-20-40 160 160 0 01-10-60 210 210 0 01 10-50 240 240 0 01 10-30 300 300 0 00 10-30 50 50 0 00 0-30 160 160 0 00-10-30 180 180 0 01-10-20 60 60 0 01-10-30l30-50a90 90 0 00 0-40 100 100 0 00-20-60 180 180 0 00-10-20 70 70 0 01 10 20 100 100 0 01 30 60 90 90 0 01-10 40l-20 50 10 50a160 160 0 01 10 30 60 60 0 01 0 30 310 310 0 01-10 30 240 240 0 00-10 30 210 210 0 00-10 50 140 140 0 00 30 90 120 120 0 00 50 40l30 10Z" fill="#455a64"/>
  <path d="M6030 1220a70 70 0 01-20 10 160 160 0 01-40 0 80 80 0 01-50-40 170 170 0 01-10-30 60 60 0 00-30-30l-70-20a120 120 0 01-60-10 60 60 0 01-20-40 30 30 0 01 0-10 70 70 0 00 0 10 60 60 0 00 30 30 120 120 0 00 50 20c30 0 50 0 80 20a60 60 0 01 20 30 170 170 0 00 10 30 80 80 0 00 50 30 170 170 0 00 40 0 100 100 0 01 20 0Zm-30-80a30 30 0 01-10 0 70 70 0 01-50-20 90 90 0 01-10-20l-40-40a120 120 0 00-60 0 170 170 0 01-40 0 60 60 0 01-30-20 30 30 0 01-10 0h10a60 60 0 00 30 10 180 180 0 00 40 0 120 120 0 01 60 10 60 60 0 01 20 20 260 260 0 01 20 20 100 100 0 00 10 20 70 70 0 00 20 20 70 70 0 00 30 0h10Zm70 570v-20a170 170 0 00 10-60 160 160 0 00-20-70l-30-40a70 70 0 01-10-20 50 50 0 01 0-30l20-50-10-40a210 210 0 01-10-20 70 70 0 01-10-20 180 180 0 01 0-40 100 100 0 00 0-50 50 50 0 00-10-20 40 40 0 01 10 10 100 100 0 01 10 60 190 190 0 00 0 40 100 100 0 00 10 30 130 130 0 01 10 30 50 50 0 01 10 20l-20 50a50 50 0 00 0 20 70 70 0 00 10 30l20 40a170 170 0 01 20 70 160 160 0 01 0 60 100 100 0 01-10 10 20 20 0 01 0 10Z" fill="#455a64"/>
  <path d="M5660 3570s-70-640-70-870 100-470 100-470l440-20s80 240 80 340c10 200-50 390-40 540l10 480" fill="#263238"/>
  <path d="M6200 2790a70 70 0 01-10 0h-10v10a70 70 0 00-10 10l-30 80a290 290 0 01-30 70 110 110 0 01-10 10v10h-10a110 110 0 01-30 20c-20 20-50 20-80 30a120 120 0 00-50 70l-30 80c-10 30-20 50-50 70a120 120 0 01-70 20h-60a100 100 0 00-50 20 70 70 0 00-20 30 50 50 0 00 0 30 50 50 0 01 0-30 70 70 0 01 20-30 100 100 0 01 50-20l60-10a120 120 0 00 70-20 150 150 0 00 50-60l30-90a130 130 0 01 50-60l80-30a100 100 0 00 30-20l10-10a100 100 0 00 10-20 290 290 0 00 20-60c10-40 20-70 40-80a70 70 0 01 10-10v-10h10a70 70 0 01 10 0Zm0-300a50 50 0 01 0 10 100 100 0 01 0 20 160 160 0 01-50 80 290 290 0 01-50 40l-70 30a320 320 0 00-60 50 250 250 0 00-50 60 620 620 0 01-40 80 180 180 0 01-30 30 170 170 0 01-30 20 400 400 0 01-70 20l-60 20a230 230 0 00-40 30 140 140 0 00-30 20 130 130 0 00-20 30 50 50 0 01 10-10 100 100 0 01 10-20 130 130 0 01 30-20 230 230 0 01 40-30 600 600 0 01 60-20 410 410 0 00 70-30 170 170 0 00 30-20 180 180 0 00 30-30 640 640 0 00 40-70 250 250 0 01 50-70 320 320 0 01 60-40l60-40a290 290 0 00 50-30 160 160 0 00 50-80 150 150 0 00 10-30Zm-610 240a50 50 0 01 0-10 50 50 0 01 0-20c0-20 30-50 60-60l60-20a110 110 0 00 80-60 320 320 0 00 20-30 390 390 0 01 30-80 120 120 0 01 60-50 590 590 0 01 80-20 250 250 0 00 60-20 140 140 0 00 50-40 150 150 0 00 30-80 230 230 0 00-10-30 100 100 0 01 10 30 150 150 0 01-30 80 140 140 0 01-40 40 250 250 0 01-70 30 600 600 0 00-70 10 120 120 0 00-70 50 390 390 0 00-30 80 310 310 0 01-10 40 130 130 0 01-30 30 130 130 0 01-60 30l-60 10c-30 10-50 40-60 60a50 50 0 00 0 20 50 50 0 01 0 10Zm570 540a40 40 0 01 0 10 70 70 0 01 0 10 100 100 0 01-40 60 170 170 0 01-40 20l-50 20a410 410 0 00-50 20 150 150 0 00-50 40l-40 40a190 190 0 01-50 40 200 200 0 01-90 20 190 190 0 01-70-10 120 120 0 01-10-10 30 30 0 01-10 0 40 40 0 01 10 0 180 180 0 00 10 10 200 200 0 00 70 10 200 200 0 00 90-30 190 190 0 00 50-30l40-50a160 160 0 01 50-40 410 410 0 01 50-20l50-10a170 170 0 00 40-20 100 100 0 00 40-60 130 130 0 00 0-20Z" fill="#fafafa"/>
  <path d="m6110 1940-80 10a130 130 0 01-20 40c-70-120-120-280-140-340l10-30a90 90 0 00 0-30l-10-50c0-20-10-30-20-20v70c-10 10-10-20-20-40l-10-90c-10 0-20 10-20 30l-10 80-20-100s10-30-10-30 0 110 0 130h-10s-10-110-30-110 10 90 0 110-10-70-30-70v60a1180 1180 0 00 40 120c30 140 140 610 330 520 100-50 140-260 140-260Z" fill="#b78876"/>
  <path d="M5760 1570v-30a380 380 0 01 0-40v-30a100 100 0 01 0-10v-10h10a40 40 0 01 0 20 780 780 0 00 10 80l10 10a40 40 0 00 0 10 10 10 0 00 10 0 30 30 0 00 0-10 100 100 0 00 10-10 360 360 0 00-10-50 110 110 0 01 0-30 10 10 0 01 10-10 10 10 0 01 10 10 130 130 0 01 0 20l10 30v30a200 200 0 00 10 20 110 110 0 00 0 20 30 30 0 00 10 10 10 10 0 00 10-10 50 50 0 00 0-10v-20l-10-20a100 100 0 01 0-10 20 20 0 01 0-10h10l10 10v30l10 40a60 60 0 01 0 30l-10 20a1150 1150 0 00 50 140l40 110 40 70 10 20a30 30 0 00 0 10 40 40 0 00 0-10l-10-20-40-70-40-110a1190 1190 0 01-40-140v-20a60 60 0 00 0-30v-40l-10-30a40 40 0 00 0-10 10 10 0 00-10-10 10 10 0 00-10 10 20 20 0 00 0 10 90 90 0 00 0 10v40a50 50 0 01 0 10 100 100 0 01-10-20 190 190 0 01 0-20l-10-30v-30a120 120 0 00-10-30 10 10 0 00-10 0 20 20 0 00-10 10 50 50 0 00 0 20v10a370 370 0 01 0 50 90 90 0 01 0 10 20 20 0 01 0 10l-10-10v-10a790 790 0 01-10-80 40 40 0 00 0-20 10 10 0 00-10 0 10 10 0 00 0-10 10 10 0 00-10 10 100 100 0 00-10 20v30a350 350 0 00 10 40v30Z" fill="#a36957"/>
  <path d="M5110 2080a210 210 0 00-60 10c-50 10-140 70-150 130h70l-30 70 80-70Z" fill="#b78876"/>
  <path d="M5990 920Zm280-240Zm120 290Z" fill="#263238"/>
  <path d="m2990 2350-350 1810-50 240 2360-10c110 0 200-90 230-230l420-1720c30-110-30-220-110-220l-2390 10c-50 0-100 40-110 120Z" fill="#ff725e"/>
  <path d="m2990 2350-350 1810-50 240 2360-10c110 0 200-90 230-230l420-1720c30-110-30-220-110-220l-2390 10c-50 0-100 40-110 120Z" opacity="1"/>
  <path d="m4720 4040-250-2010c-10-90-70-150-150-150h-550a150 150 0 00-110 50l-260 280-1520 10c-90 0-160 90-150 180l230 1870c10 80 80 140 150 140l2660-10c300 10 320-80 320-80-340 80-370-280-370-280Z" fill="#ff725e"/>
  <g fill="#fff" opacity="1">
    <path d="m3580 3640-90 90-690-620 90-90 690 620"/>
    <path d="m3450 3000 100 80-620 670-100-80 620-670"/>
  </g>
</svg>
